<mxfile host="Electron" modified="2023-10-17T13:59:32.841Z" agent="Mozilla/5.0 (Macintosh; Intel Mac OS X 10_15_7) AppleWebKit/537.36 (KHTML, like Gecko) draw.io/21.2.8 Chrome/112.0.5615.165 Electron/24.2.0 Safari/537.36" etag="hoiVK_2TC6oFfQ0Ycp3l" version="21.2.8" type="device">
  <diagram id="C5RBs43oDa-KdzZeNtuy" name="Page-1">
    <mxGraphModel dx="16573" dy="7513" grid="1" gridSize="10" guides="1" tooltips="1" connect="1" arrows="1" fold="1" page="0" pageScale="1" pageWidth="827" pageHeight="1169" background="#000000" math="0" shadow="0">
      <root>
        <mxCell id="WIyWlLk6GJQsqaUBKTNV-0" />
        <mxCell id="WIyWlLk6GJQsqaUBKTNV-1" parent="WIyWlLk6GJQsqaUBKTNV-0" />
        <mxCell id="XOKMStSDW30iechTKge2-155" value="" style="rounded=0;whiteSpace=wrap;html=1;fillColor=#008a00;strokeColor=#005700;fontColor=#ffffff;" vertex="1" parent="WIyWlLk6GJQsqaUBKTNV-1">
          <mxGeometry x="2160" y="-780" width="1000" height="780" as="geometry" />
        </mxCell>
        <mxCell id="XOKMStSDW30iechTKge2-87" value="" style="rounded=0;whiteSpace=wrap;html=1;fillColor=#0050ef;strokeColor=#001DBC;fontColor=#ffffff;glass=0;gradientColor=none;" vertex="1" parent="WIyWlLk6GJQsqaUBKTNV-1">
          <mxGeometry x="1000" y="-780" width="1000" height="540" as="geometry" />
        </mxCell>
        <mxCell id="XOKMStSDW30iechTKge2-81" value="" style="rounded=0;whiteSpace=wrap;html=1;fillColor=#0050ef;fontColor=#ffffff;strokeColor=#001DBC;" vertex="1" parent="WIyWlLk6GJQsqaUBKTNV-1">
          <mxGeometry x="-160" y="-60" width="1000" height="900" as="geometry" />
        </mxCell>
        <mxCell id="XOKMStSDW30iechTKge2-48" value="" style="rounded=0;whiteSpace=wrap;html=1;fillColor=#0050ef;strokeColor=#001DBC;fontColor=#ffffff;" vertex="1" parent="WIyWlLk6GJQsqaUBKTNV-1">
          <mxGeometry x="-160" y="-500" width="1000" height="260" as="geometry" />
        </mxCell>
        <mxCell id="XOKMStSDW30iechTKge2-39" value="" style="rounded=0;whiteSpace=wrap;html=1;fillColor=#0050ef;fontColor=#ffffff;strokeColor=#001DBC;" vertex="1" parent="WIyWlLk6GJQsqaUBKTNV-1">
          <mxGeometry x="1000" y="-60" width="1000" height="500" as="geometry" />
        </mxCell>
        <mxCell id="XOKMStSDW30iechTKge2-32" value="" style="rounded=0;whiteSpace=wrap;html=1;fillColor=#0050ef;strokeColor=#001DBC;fontColor=#ffffff;" vertex="1" parent="WIyWlLk6GJQsqaUBKTNV-1">
          <mxGeometry x="-160" y="-1140" width="1000" height="460" as="geometry" />
        </mxCell>
        <mxCell id="XOKMStSDW30iechTKge2-7" value="&lt;pre style=&quot;background-color:#282c34;color:#abb2bf;font-family:&#39;JetBrains Mono&#39;,monospace;font-size:9.4pt;&quot;&gt;Api/RestController&lt;/pre&gt;" style="rounded=0;whiteSpace=wrap;html=1;fillColor=#2a2a33;strokeColor=#ffffff;" vertex="1" parent="WIyWlLk6GJQsqaUBKTNV-1">
          <mxGeometry x="1360" y="-80" width="280" height="40" as="geometry" />
        </mxCell>
        <mxCell id="XOKMStSDW30iechTKge2-55" style="edgeStyle=orthogonalEdgeStyle;rounded=0;orthogonalLoop=1;jettySize=auto;html=1;exitX=0.5;exitY=1;exitDx=0;exitDy=0;fillColor=#f5f5f5;strokeColor=#FFFFFF;" edge="1" parent="WIyWlLk6GJQsqaUBKTNV-1" source="XOKMStSDW30iechTKge2-11" target="XOKMStSDW30iechTKge2-7">
          <mxGeometry relative="1" as="geometry" />
        </mxCell>
        <mxCell id="XOKMStSDW30iechTKge2-85" style="edgeStyle=orthogonalEdgeStyle;rounded=0;orthogonalLoop=1;jettySize=auto;html=1;exitX=0.5;exitY=1;exitDx=0;exitDy=0;fillColor=#f5f5f5;strokeColor=#ffffff;" edge="1" parent="WIyWlLk6GJQsqaUBKTNV-1" source="XOKMStSDW30iechTKge2-11" target="XOKMStSDW30iechTKge2-79">
          <mxGeometry relative="1" as="geometry" />
        </mxCell>
        <mxCell id="XOKMStSDW30iechTKge2-120" style="edgeStyle=orthogonalEdgeStyle;rounded=0;orthogonalLoop=1;jettySize=auto;html=1;exitX=0.5;exitY=0;exitDx=0;exitDy=0;entryX=0.5;entryY=0;entryDx=0;entryDy=0;fillColor=#f5f5f5;strokeColor=#ffffff;" edge="1" parent="WIyWlLk6GJQsqaUBKTNV-1" source="XOKMStSDW30iechTKge2-11" target="XOKMStSDW30iechTKge2-47">
          <mxGeometry relative="1" as="geometry">
            <Array as="points">
              <mxPoint x="920" y="-560" />
              <mxPoint x="340" y="-560" />
            </Array>
          </mxGeometry>
        </mxCell>
        <mxCell id="XOKMStSDW30iechTKge2-121" style="edgeStyle=orthogonalEdgeStyle;rounded=0;orthogonalLoop=1;jettySize=auto;html=1;exitX=0.5;exitY=0;exitDx=0;exitDy=0;entryX=0.5;entryY=0;entryDx=0;entryDy=0;fillColor=#f5f5f5;strokeColor=#ffffff;" edge="1" parent="WIyWlLk6GJQsqaUBKTNV-1" source="XOKMStSDW30iechTKge2-11" target="XOKMStSDW30iechTKge2-86">
          <mxGeometry relative="1" as="geometry">
            <Array as="points">
              <mxPoint x="920" y="-840" />
              <mxPoint x="1500" y="-840" />
            </Array>
          </mxGeometry>
        </mxCell>
        <mxCell id="XOKMStSDW30iechTKge2-122" style="edgeStyle=orthogonalEdgeStyle;rounded=0;orthogonalLoop=1;jettySize=auto;html=1;exitX=0.5;exitY=0;exitDx=0;exitDy=0;entryX=0.5;entryY=0;entryDx=0;entryDy=0;fillColor=#f5f5f5;strokeColor=#ffffff;" edge="1" parent="WIyWlLk6GJQsqaUBKTNV-1" source="XOKMStSDW30iechTKge2-11" target="XOKMStSDW30iechTKge2-18">
          <mxGeometry relative="1" as="geometry">
            <Array as="points">
              <mxPoint x="920" y="-1200" />
              <mxPoint x="340" y="-1200" />
            </Array>
          </mxGeometry>
        </mxCell>
        <mxCell id="XOKMStSDW30iechTKge2-11" value="&lt;pre style=&quot;background-color:#282c34;color:#abb2bf;font-family:&#39;JetBrains Mono&#39;,monospace;font-size:9.4pt;&quot;&gt;vw-api&lt;/pre&gt;" style="rounded=0;whiteSpace=wrap;html=1;fillColor=#2a2a33;strokeColor=#ffffff;" vertex="1" parent="WIyWlLk6GJQsqaUBKTNV-1">
          <mxGeometry x="840" y="-200" width="160" height="40" as="geometry" />
        </mxCell>
        <mxCell id="XOKMStSDW30iechTKge2-18" value="&lt;pre style=&quot;background-color:#282c34;color:#abb2bf;font-family:&#39;JetBrains Mono&#39;,monospace;font-size:9.4pt;&quot;&gt;Api/Config&lt;/pre&gt;" style="rounded=0;whiteSpace=wrap;html=1;fillColor=#2a2a33;strokeColor=#ffffff;" vertex="1" parent="WIyWlLk6GJQsqaUBKTNV-1">
          <mxGeometry x="200" y="-1160" width="280" height="40" as="geometry" />
        </mxCell>
        <mxCell id="XOKMStSDW30iechTKge2-24" value="&lt;pre style=&quot;background-color:#282c34;color:#abb2bf;font-family:&#39;JetBrains Mono&#39;,monospace;font-size:9.4pt;&quot;&gt;&lt;pre style=&quot;font-family: &amp;quot;JetBrains Mono&amp;quot;, monospace; font-size: 9.4pt;&quot;&gt;public class &lt;span style=&quot;color:#56b6c2;&quot;&gt;SecurityConfig &lt;/span&gt;&lt;span style=&quot;color:#ffd700;&quot;&gt;{ &lt;/span&gt;&lt;span style=&quot;color:#7f848e;&quot;&gt;// &lt;/span&gt;&lt;span style=&quot;color:#7f848e;font-family:&#39;Menlo-Regular&#39;,monospace;&quot;&gt;스프링 시큐리티 설정&lt;/span&gt;&lt;/pre&gt;&lt;/pre&gt;" style="rounded=0;whiteSpace=wrap;html=1;fillColor=#2a2a33;strokeColor=#ffffff;" vertex="1" parent="WIyWlLk6GJQsqaUBKTNV-1">
          <mxGeometry x="-80" y="-1080" width="840" height="40" as="geometry" />
        </mxCell>
        <mxCell id="XOKMStSDW30iechTKge2-27" value="&lt;pre style=&quot;background-color:#282c34;color:#abb2bf;font-family:&#39;JetBrains Mono&#39;,monospace;font-size:9.4pt;&quot;&gt;&lt;pre style=&quot;font-family: &amp;quot;JetBrains Mono&amp;quot;, monospace; font-size: 9.4pt;&quot;&gt;public &lt;span style=&quot;color:#56b6c2;&quot;&gt;SecurityFilterChain &lt;/span&gt;&lt;span style=&quot;color:#98c379;&quot;&gt;filterChain&lt;/span&gt;&lt;span style=&quot;color:#ffd700;&quot;&gt;(&lt;/span&gt;&lt;span style=&quot;color:#56b6c2;&quot;&gt;HttpSecurity &lt;/span&gt;&lt;span style=&quot;color:#f59762;&quot;&gt;httpSecurity&lt;/span&gt;&lt;span style=&quot;color:#ffd700;&quot;&gt;)&lt;br&gt;&lt;/span&gt;&lt;span style=&quot;color:#ffd700;&quot;&gt; &lt;/span&gt;&lt;span style=&quot;color:#e06c75;&quot;&gt;throws &lt;/span&gt;&lt;span style=&quot;color:#56b6c2;&quot;&gt;Exception &lt;/span&gt;&lt;span style=&quot;color:#87cefa;&quot;&gt;{ &lt;/span&gt;&lt;span style=&quot;color:#7f848e;&quot;&gt;// &lt;/span&gt;&lt;span style=&quot;color:#7f848e;font-family:&#39;Menlo-Regular&#39;,monospace;&quot;&gt;스프링 시큐리티의 보안 필터를 조합해&lt;/span&gt;&lt;span style=&quot;color:#7f848e;&quot;&gt; HttpSecurity &lt;/span&gt;&lt;span style=&quot;color:#7f848e;font-family:&#39;Menlo-Regular&#39;,monospace;&quot;&gt;반환&lt;/span&gt;&lt;/pre&gt;&lt;/pre&gt;" style="rounded=0;whiteSpace=wrap;html=1;fillColor=#2a2a33;strokeColor=#ffffff;" vertex="1" parent="WIyWlLk6GJQsqaUBKTNV-1">
          <mxGeometry x="-120" y="-1040" width="920" height="40" as="geometry" />
        </mxCell>
        <mxCell id="XOKMStSDW30iechTKge2-41" value="&lt;pre style=&quot;background-color:#282c34;color:#abb2bf;font-family:&#39;JetBrains Mono&#39;,monospace;font-size:9.4pt;&quot;&gt;&lt;pre style=&quot;font-family: &amp;quot;JetBrains Mono&amp;quot;, monospace; font-size: 9.4pt;&quot;&gt;public &lt;span style=&quot;color:#56b6c2;&quot;&gt;PasswordEncoder &lt;/span&gt;&lt;span style=&quot;color:#98c379;&quot;&gt;passwordEncoder&lt;/span&gt;&lt;span style=&quot;color:#ffd700;&quot;&gt;() &lt;/span&gt;&lt;span style=&quot;color:#87cefa;&quot;&gt;{ &lt;/span&gt;&lt;span style=&quot;color:#7f848e;&quot;&gt;// &lt;/span&gt;&lt;span style=&quot;color:#7f848e;font-family:&#39;Menlo-Regular&#39;,monospace;&quot;&gt;비밀번호 암호화&lt;/span&gt;&lt;/pre&gt;&lt;/pre&gt;" style="rounded=0;whiteSpace=wrap;html=1;fillColor=#2a2a33;strokeColor=#ffffff;" vertex="1" parent="WIyWlLk6GJQsqaUBKTNV-1">
          <mxGeometry x="-120" y="-1000" width="920" height="40" as="geometry" />
        </mxCell>
        <mxCell id="XOKMStSDW30iechTKge2-42" value="&lt;pre style=&quot;background-color:#282c34;color:#abb2bf;font-family:&#39;JetBrains Mono&#39;,monospace;font-size:9.4pt;&quot;&gt;&lt;pre style=&quot;font-family: &amp;quot;JetBrains Mono&amp;quot;, monospace; font-size: 9.4pt;&quot;&gt;public class &lt;span style=&quot;color:#56b6c2;&quot;&gt;SwaggerConfig &lt;/span&gt;&lt;span style=&quot;color:#ffd700;&quot;&gt;{ &lt;/span&gt;&lt;span style=&quot;color:#7f848e;&quot;&gt;// Swagger3 &lt;/span&gt;&lt;span style=&quot;color:#7f848e;font-family:&#39;Menlo-Regular&#39;,monospace;&quot;&gt;설정&lt;/span&gt;&lt;/pre&gt;&lt;/pre&gt;" style="rounded=0;whiteSpace=wrap;html=1;fillColor=#2a2a33;strokeColor=#ffffff;" vertex="1" parent="WIyWlLk6GJQsqaUBKTNV-1">
          <mxGeometry x="-80" y="-930" width="840" height="40" as="geometry" />
        </mxCell>
        <mxCell id="XOKMStSDW30iechTKge2-43" value="&lt;pre style=&quot;background-color:#282c34;color:#abb2bf;font-family:&#39;JetBrains Mono&#39;,monospace;font-size:9.4pt;&quot;&gt;&lt;pre style=&quot;font-family: &amp;quot;JetBrains Mono&amp;quot;, monospace; font-size: 9.4pt;&quot;&gt;public &lt;span style=&quot;color:#56b6c2;&quot;&gt;GroupedOpenApi &lt;/span&gt;&lt;span style=&quot;color:#98c379;&quot;&gt;groupedOpenApi&lt;/span&gt;&lt;span style=&quot;color:#ffd700;&quot;&gt;() &lt;/span&gt;&lt;span style=&quot;color:#87cefa;&quot;&gt;{ &lt;/span&gt;&lt;span style=&quot;color:#7f848e;&quot;&gt;// OpenAPI &lt;/span&gt;&lt;span style=&quot;color:#7f848e;font-family:&#39;Menlo-Regular&#39;,monospace;&quot;&gt;문서 생성 및 관리&lt;br&gt;&lt;/span&gt;&lt;/pre&gt;&lt;/pre&gt;" style="rounded=0;whiteSpace=wrap;html=1;fillColor=#2a2a33;strokeColor=#ffffff;" vertex="1" parent="WIyWlLk6GJQsqaUBKTNV-1">
          <mxGeometry x="-120" y="-890" width="920" height="40" as="geometry" />
        </mxCell>
        <mxCell id="XOKMStSDW30iechTKge2-44" value="&lt;pre style=&quot;background-color:#282c34;color:#abb2bf;font-family:&#39;JetBrains Mono&#39;,monospace;font-size:9.4pt;&quot;&gt;public class &lt;span style=&quot;color:#56b6c2;&quot;&gt;WebMvcConfig &lt;/span&gt;&lt;span style=&quot;color:#e06c75;&quot;&gt;implements &lt;/span&gt;&lt;span style=&quot;color:#56b6c2;&quot;&gt;WebMvcConfigurer &lt;/span&gt;&lt;span style=&quot;color:#ffd700;&quot;&gt;{ &lt;/span&gt;&lt;span style=&quot;color:#7f848e;&quot;&gt;// &lt;/span&gt;&lt;span style=&quot;color:#7f848e;font-family:&#39;Menlo-Regular&#39;,monospace;&quot;&gt;웹 어플리케이션에서 정적 리소스 관리&lt;/span&gt;&lt;/pre&gt;" style="rounded=0;whiteSpace=wrap;html=1;fillColor=#2a2a33;strokeColor=#ffffff;" vertex="1" parent="WIyWlLk6GJQsqaUBKTNV-1">
          <mxGeometry x="-80" y="-810" width="840" height="40" as="geometry" />
        </mxCell>
        <mxCell id="XOKMStSDW30iechTKge2-46" value="&lt;pre style=&quot;background-color:#282c34;color:#abb2bf;font-family:&#39;JetBrains Mono&#39;,monospace;font-size:9.4pt;&quot;&gt;&lt;pre style=&quot;font-family: &amp;quot;JetBrains Mono&amp;quot;, monospace; font-size: 9.4pt;&quot;&gt;public void &lt;span style=&quot;color:#98c379;&quot;&gt;addResourceHandlers&lt;/span&gt;&lt;span style=&quot;color:#ffd700;&quot;&gt;(&lt;br&gt;&lt;/span&gt;&lt;span style=&quot;color:#ffd700;&quot;&gt;      &lt;/span&gt;&lt;span style=&quot;color:#56b6c2;&quot;&gt;ResourceHandlerRegistry &lt;/span&gt;&lt;span style=&quot;color:#f59762;&quot;&gt;resourceHandlerRegistry&lt;/span&gt;&lt;span style=&quot;color:#ffd700;&quot;&gt;) &lt;/span&gt;&lt;span style=&quot;color:#87cefa;&quot;&gt;{ &lt;/span&gt;&lt;span style=&quot;color:#7f848e;&quot;&gt;// &lt;/span&gt;&lt;span style=&quot;color:#7f848e;font-family:&#39;Menlo-Regular&#39;,monospace;&quot;&gt;정적 리소스의 요청 경로와 실제 파일 시스템 경로 매핑&lt;/span&gt;&lt;/pre&gt;&lt;/pre&gt;" style="rounded=0;whiteSpace=wrap;html=1;fillColor=#2a2a33;strokeColor=#ffffff;" vertex="1" parent="WIyWlLk6GJQsqaUBKTNV-1">
          <mxGeometry x="-120" y="-770" width="920" height="40" as="geometry" />
        </mxCell>
        <mxCell id="XOKMStSDW30iechTKge2-47" value="&lt;pre style=&quot;background-color:#282c34;color:#abb2bf;font-family:&#39;JetBrains Mono&#39;,monospace;font-size:9.4pt;&quot;&gt;Api/Application&lt;/pre&gt;" style="rounded=0;whiteSpace=wrap;html=1;fillColor=#2a2a33;strokeColor=#ffffff;" vertex="1" parent="WIyWlLk6GJQsqaUBKTNV-1">
          <mxGeometry x="200" y="-520" width="280" height="40" as="geometry" />
        </mxCell>
        <mxCell id="XOKMStSDW30iechTKge2-49" value="&lt;pre style=&quot;background-color:#282c34;color:#abb2bf;font-family:&#39;JetBrains Mono&#39;,monospace;font-size:9.4pt;&quot;&gt;&lt;pre style=&quot;font-family: &amp;quot;JetBrains Mono&amp;quot;, monospace; font-size: 9.4pt;&quot;&gt;public class &lt;span style=&quot;color:#56b6c2;&quot;&gt;ApiApplication&lt;br&gt;&lt;/span&gt;&lt;span style=&quot;color:#56b6c2;&quot;&gt;      &lt;/span&gt;&lt;span style=&quot;color:#e06c75;&quot;&gt;implements &lt;/span&gt;&lt;span style=&quot;color:#56b6c2;&quot;&gt;ApplicationListener&lt;/span&gt;&lt;span style=&quot;color:#ffd700;&quot;&gt;&amp;lt;&lt;/span&gt;&lt;span style=&quot;color:#56b6c2;&quot;&gt;ApplicationReadyEvent&lt;/span&gt;&lt;span style=&quot;color:#ffd700;&quot;&gt;&amp;gt; { &lt;/span&gt;&lt;span style=&quot;color:#7f848e;&quot;&gt;// &lt;/span&gt;&lt;span style=&quot;color:#7f848e;font-family:&#39;Menlo-Regular&#39;,monospace;&quot;&gt;애플리케이션이 초기화되고 준비된 이후에 발생하는 이벤트 감지&lt;/span&gt;&lt;/pre&gt;&lt;/pre&gt;" style="rounded=0;whiteSpace=wrap;html=1;fillColor=#2a2a33;strokeColor=#ffffff;" vertex="1" parent="WIyWlLk6GJQsqaUBKTNV-1">
          <mxGeometry x="-80" y="-440" width="840" height="40" as="geometry" />
        </mxCell>
        <mxCell id="XOKMStSDW30iechTKge2-50" value="&lt;pre style=&quot;background-color:#282c34;color:#abb2bf;font-family:&#39;JetBrains Mono&#39;,monospace;font-size:9.4pt;&quot;&gt;&lt;pre style=&quot;font-family: &amp;quot;JetBrains Mono&amp;quot;, monospace; font-size: 9.4pt;&quot;&gt;public static void &lt;span style=&quot;color:#98c379;&quot;&gt;main&lt;/span&gt;&lt;span style=&quot;color:#ffd700;&quot;&gt;(&lt;/span&gt;&lt;span style=&quot;color:#56b6c2;&quot;&gt;String&lt;/span&gt;&lt;span style=&quot;color:#ffd700;&quot;&gt;[] &lt;/span&gt;&lt;span style=&quot;color:#f59762;&quot;&gt;args&lt;/span&gt;&lt;span style=&quot;color:#ffd700;&quot;&gt;) &lt;/span&gt;&lt;span style=&quot;color:#87cefa;&quot;&gt;{ &lt;/span&gt;&lt;span style=&quot;color:#7f848e;&quot;&gt;// Java &lt;/span&gt;&lt;span style=&quot;color:#7f848e;font-family:&#39;Menlo-Regular&#39;,monospace;&quot;&gt;애플리케이션 실행&lt;/span&gt;&lt;/pre&gt;&lt;/pre&gt;" style="rounded=0;whiteSpace=wrap;html=1;fillColor=#2a2a33;strokeColor=#ffffff;" vertex="1" parent="WIyWlLk6GJQsqaUBKTNV-1">
          <mxGeometry x="-120" y="-400" width="920" height="40" as="geometry" />
        </mxCell>
        <mxCell id="XOKMStSDW30iechTKge2-51" value="&lt;pre style=&quot;background-color:#282c34;color:#abb2bf;font-family:&#39;JetBrains Mono&#39;,monospace;font-size:9.4pt;&quot;&gt;&lt;pre style=&quot;font-family: &amp;quot;JetBrains Mono&amp;quot;, monospace; font-size: 9.4pt;&quot;&gt;ForwardedHeaderFilter &lt;span style=&quot;color:#98c379;&quot;&gt;forwardedHeaderFilter&lt;/span&gt;&lt;span style=&quot;color:#ffd700;&quot;&gt;() &lt;/span&gt;&lt;span style=&quot;color:#87cefa;&quot;&gt;{ &lt;/span&gt;&lt;span style=&quot;color:#7f848e;&quot;&gt;// &lt;/span&gt;&lt;span style=&quot;color:#7f848e;font-family:&#39;Menlo-Regular&#39;,monospace;&quot;&gt;요청 헤더를 통해 프록시 서버에서 전달된 정보 처리&lt;br&gt;&lt;/span&gt;&lt;/pre&gt;&lt;/pre&gt;" style="rounded=0;whiteSpace=wrap;html=1;fillColor=#2a2a33;strokeColor=#ffffff;" vertex="1" parent="WIyWlLk6GJQsqaUBKTNV-1">
          <mxGeometry x="-120" y="-360" width="920" height="40" as="geometry" />
        </mxCell>
        <mxCell id="XOKMStSDW30iechTKge2-52" value="&lt;pre style=&quot;background-color:#282c34;color:#abb2bf;font-family:&#39;JetBrains Mono&#39;,monospace;font-size:9.4pt;&quot;&gt;&lt;pre style=&quot;font-family: &amp;quot;JetBrains Mono&amp;quot;, monospace; font-size: 9.4pt;&quot;&gt;public void &lt;span style=&quot;color:#98c379;&quot;&gt;onApplicationEvent&lt;/span&gt;&lt;span style=&quot;color:#ffd700;&quot;&gt;(&lt;/span&gt;&lt;span style=&quot;color:#56b6c2;&quot;&gt;ApplicationReadyEvent &lt;/span&gt;&lt;span style=&quot;color:#f59762;&quot;&gt;applicationReadyEvent&lt;/span&gt;&lt;span style=&quot;color:#ffd700;&quot;&gt;) &lt;/span&gt;&lt;span style=&quot;color:#87cefa;&quot;&gt;{&lt;br&gt;&lt;/span&gt;&lt;span style=&quot;color:#87cefa;&quot;&gt;   &lt;/span&gt;&lt;span style=&quot;color:#7f848e;&quot;&gt;// ApplicationReadyEvent&lt;/span&gt;&lt;span style=&quot;color:#7f848e;font-family:&#39;Menlo-Regular&#39;,monospace;&quot;&gt;가 발생하면 호출&lt;/span&gt;&lt;span style=&quot;color:#7f848e;&quot;&gt;. &lt;/span&gt;&lt;span style=&quot;color:#7f848e;font-family:&#39;Menlo-Regular&#39;,monospace;&quot;&gt;활성화된 프로파일들을 로그로 출력&lt;/span&gt;&lt;/pre&gt;&lt;/pre&gt;" style="rounded=0;whiteSpace=wrap;html=1;fillColor=#2a2a33;strokeColor=#ffffff;" vertex="1" parent="WIyWlLk6GJQsqaUBKTNV-1">
          <mxGeometry x="-120" y="-320" width="920" height="40" as="geometry" />
        </mxCell>
        <mxCell id="XOKMStSDW30iechTKge2-69" value="&lt;pre style=&quot;background-color:#282c34;color:#abb2bf;font-family:&#39;JetBrains Mono&#39;,monospace;font-size:9.4pt;&quot;&gt;&lt;pre style=&quot;font-family: &amp;quot;JetBrains Mono&amp;quot;, monospace; font-size: 9.4pt;&quot;&gt;public class &lt;span style=&quot;color:#56b6c2;&quot;&gt;UserLoginController &lt;/span&gt;&lt;span style=&quot;color:#ffd700;&quot;&gt;{ &lt;/span&gt;&lt;span style=&quot;color:#7f848e;&quot;&gt;// &lt;/span&gt;&lt;span style=&quot;color:#7f848e;font-family:&#39;Menlo-Regular&#39;,monospace;&quot;&gt;로그인과 관련된 컨트롤러&lt;/span&gt;&lt;/pre&gt;&lt;/pre&gt;" style="rounded=0;whiteSpace=wrap;html=1;fillColor=#2a2a33;strokeColor=#ffffff;" vertex="1" parent="WIyWlLk6GJQsqaUBKTNV-1">
          <mxGeometry x="1080" y="320" width="840" height="40" as="geometry" />
        </mxCell>
        <mxCell id="XOKMStSDW30iechTKge2-70" value="&lt;pre style=&quot;background-color:#282c34;color:#abb2bf;font-family:&#39;JetBrains Mono&#39;,monospace;font-size:9.4pt;&quot;&gt;&lt;pre style=&quot;font-family: &amp;quot;JetBrains Mono&amp;quot;, monospace; font-size: 9.4pt;&quot;&gt;public &lt;span style=&quot;color:#56b6c2;&quot;&gt;ResponseEntity&lt;/span&gt;&lt;span style=&quot;color:#ffd700;&quot;&gt;&amp;lt;&lt;/span&gt;&lt;span style=&quot;color:#56b6c2;&quot;&gt;String&lt;/span&gt;&lt;span style=&quot;color:#ffd700;&quot;&gt;&amp;gt; &lt;/span&gt;&lt;span style=&quot;color:#98c379;&quot;&gt;userLoginPOST&lt;/span&gt;&lt;span style=&quot;color:#ffd700;&quot;&gt;(&lt;/span&gt;&lt;span style=&quot;color:#56b6c2;&quot;&gt;LoginRequest &lt;/span&gt;&lt;span style=&quot;color:#f59762;&quot;&gt;req&lt;/span&gt;&lt;span style=&quot;color:#ffd700;&quot;&gt;) &lt;/span&gt;&lt;span style=&quot;color:#87cefa;&quot;&gt;{ &lt;/span&gt;&lt;span style=&quot;color:#7f848e;&quot;&gt;// &lt;/span&gt;&lt;span style=&quot;color:#7f848e;font-family:&#39;Menlo-Regular&#39;,monospace;&quot;&gt;로그인 실행&lt;/span&gt;&lt;/pre&gt;&lt;/pre&gt;" style="rounded=0;whiteSpace=wrap;html=1;fillColor=#2a2a33;strokeColor=#ffffff;" vertex="1" parent="WIyWlLk6GJQsqaUBKTNV-1">
          <mxGeometry x="1040" y="360" width="920" height="40" as="geometry" />
        </mxCell>
        <mxCell id="XOKMStSDW30iechTKge2-71" value="&lt;pre style=&quot;background-color:#282c34;color:#abb2bf;font-family:&#39;JetBrains Mono&#39;,monospace;font-size:9.4pt;&quot;&gt;&lt;pre style=&quot;font-family: &amp;quot;JetBrains Mono&amp;quot;, monospace; font-size: 9.4pt;&quot;&gt;public class &lt;span style=&quot;color:#56b6c2;&quot;&gt;UserRegisterController &lt;/span&gt;&lt;span style=&quot;color:#ffd700;&quot;&gt;{ &lt;/span&gt;&lt;span style=&quot;color:#7f848e;&quot;&gt;// &lt;/span&gt;&lt;span style=&quot;color:#7f848e;font-family:&#39;Menlo-Regular&#39;,monospace;&quot;&gt;회원가입과 관련된 컨트롤러&lt;/span&gt;&lt;/pre&gt;&lt;/pre&gt;" style="rounded=0;whiteSpace=wrap;html=1;fillColor=#2a2a33;strokeColor=#ffffff;" vertex="1" parent="WIyWlLk6GJQsqaUBKTNV-1">
          <mxGeometry x="1080" width="840" height="40" as="geometry" />
        </mxCell>
        <mxCell id="XOKMStSDW30iechTKge2-72" value="&lt;pre style=&quot;background-color:#282c34;color:#abb2bf;font-family:&#39;JetBrains Mono&#39;,monospace;font-size:9.4pt;&quot;&gt;&lt;pre style=&quot;font-family: &amp;quot;JetBrains Mono&amp;quot;, monospace; font-size: 9.4pt;&quot;&gt;public &lt;span style=&quot;color:#56b6c2;&quot;&gt;ResponseEntity&lt;/span&gt;&lt;span style=&quot;color:#ffd700;&quot;&gt;&amp;lt;&lt;/span&gt;&lt;span style=&quot;color:#56b6c2;&quot;&gt;String&lt;/span&gt;&lt;span style=&quot;color:#ffd700;&quot;&gt;&amp;gt; &lt;/span&gt;&lt;span style=&quot;color:#98c379;&quot;&gt;userRegisterChkIdPOST&lt;/span&gt;&lt;span style=&quot;color:#ffd700;&quot;&gt;(&lt;/span&gt;&lt;span style=&quot;color:#56b6c2;&quot;&gt;RegisterChkIdRequest &lt;/span&gt;&lt;span style=&quot;color:#f59762;&quot;&gt;req&lt;/span&gt;&lt;span style=&quot;color:#ffd700;&quot;&gt;) &lt;/span&gt;&lt;span style=&quot;color:#87cefa;&quot;&gt;{ &lt;/span&gt;&lt;span style=&quot;color:#7f848e;&quot;&gt;// &lt;/span&gt;&lt;span style=&quot;color:#7f848e;font-family:&#39;Menlo-Regular&#39;,monospace;&quot;&gt;회원가입 아이디 유효성 검사&lt;/span&gt;&lt;/pre&gt;&lt;/pre&gt;" style="rounded=0;whiteSpace=wrap;html=1;fillColor=#2a2a33;strokeColor=#ffffff;" vertex="1" parent="WIyWlLk6GJQsqaUBKTNV-1">
          <mxGeometry x="1040" y="40" width="920" height="40" as="geometry" />
        </mxCell>
        <mxCell id="XOKMStSDW30iechTKge2-73" value="&lt;pre style=&quot;background-color:#282c34;color:#abb2bf;font-family:&#39;JetBrains Mono&#39;,monospace;font-size:9.4pt;&quot;&gt;public&lt;span style=&quot;color:#e06c75;&quot;&gt; &lt;/span&gt;&lt;span style=&quot;color:#56b6c2;&quot;&gt;ResponseEntity&lt;/span&gt;&lt;span style=&quot;color:#ffd700;&quot;&gt;&amp;lt;&lt;/span&gt;&lt;span style=&quot;color:#56b6c2;&quot;&gt;String&lt;/span&gt;&lt;span style=&quot;color:#ffd700;&quot;&gt;&amp;gt; &lt;/span&gt;&lt;span style=&quot;color:#98c379;&quot;&gt;userRegisterChkNicknamePOST&lt;/span&gt;&lt;span style=&quot;color:#ffd700;&quot;&gt;(&lt;/span&gt;&lt;span style=&quot;color:#56b6c2;&quot;&gt;RegisterChkNicknameRequest &lt;/span&gt;&lt;span style=&quot;color:#f59762;&quot;&gt;req&lt;/span&gt;&lt;span style=&quot;color:#ffd700;&quot;&gt;) &lt;/span&gt;&lt;span style=&quot;color:#87cefa;&quot;&gt;{ &lt;/span&gt;&lt;span style=&quot;color:#7f848e;&quot;&gt;// &lt;/span&gt;&lt;span style=&quot;color:#7f848e;font-family:&#39;Menlo-Regular&#39;,monospace;&quot;&gt;닉네임 유효성 검사&lt;/span&gt;&lt;/pre&gt;" style="rounded=0;whiteSpace=wrap;html=1;fillColor=#2a2a33;strokeColor=#ffffff;" vertex="1" parent="WIyWlLk6GJQsqaUBKTNV-1">
          <mxGeometry x="1040" y="80" width="920" height="40" as="geometry" />
        </mxCell>
        <mxCell id="XOKMStSDW30iechTKge2-74" value="&lt;pre style=&quot;background-color:#282c34;color:#abb2bf;font-family:&#39;JetBrains Mono&#39;,monospace;font-size:9.4pt;&quot;&gt;public&lt;span style=&quot;color:#e06c75;&quot;&gt; &lt;/span&gt;&lt;span style=&quot;color:#56b6c2;&quot;&gt;ResponseEntity&lt;/span&gt;&lt;span style=&quot;color:#ffd700;&quot;&gt;&amp;lt;&lt;/span&gt;&lt;span style=&quot;color:#56b6c2;&quot;&gt;String&lt;/span&gt;&lt;span style=&quot;color:#ffd700;&quot;&gt;&amp;gt; &lt;/span&gt;&lt;span style=&quot;color:#98c379;&quot;&gt;userRegisterChkEmailPOST&lt;/span&gt;&lt;span style=&quot;color:#ffd700;&quot;&gt;(&lt;/span&gt;&lt;span style=&quot;color:#56b6c2;&quot;&gt;RegisterChkEmailRequest &lt;/span&gt;&lt;span style=&quot;color:#f59762;&quot;&gt;req&lt;/span&gt;&lt;span style=&quot;color:#ffd700;&quot;&gt;) &lt;/span&gt;&lt;span style=&quot;color:#87cefa;&quot;&gt;{ &lt;/span&gt;&lt;span style=&quot;color:#7f848e;&quot;&gt;// &lt;/span&gt;&lt;span style=&quot;color:#7f848e;font-family:&#39;Menlo-Regular&#39;,monospace;&quot;&gt;이메일 유효성 검사&lt;/span&gt;&lt;/pre&gt;" style="rounded=0;whiteSpace=wrap;html=1;fillColor=#2a2a33;strokeColor=#ffffff;" vertex="1" parent="WIyWlLk6GJQsqaUBKTNV-1">
          <mxGeometry x="1040" y="120" width="920" height="40" as="geometry" />
        </mxCell>
        <mxCell id="XOKMStSDW30iechTKge2-75" value="&lt;pre style=&quot;background-color:#282c34;color:#abb2bf;font-family:&#39;JetBrains Mono&#39;,monospace;font-size:9.4pt;&quot;&gt;public&lt;span style=&quot;color:#e06c75;&quot;&gt; &lt;/span&gt;&lt;span style=&quot;color:#56b6c2;&quot;&gt;ResponseEntity&lt;/span&gt;&lt;span style=&quot;color:#ffd700;&quot;&gt;&amp;lt;&lt;/span&gt;&lt;span style=&quot;color:#56b6c2;&quot;&gt;String&lt;/span&gt;&lt;span style=&quot;color:#ffd700;&quot;&gt;&amp;gt; &lt;/span&gt;&lt;span style=&quot;color:#98c379;&quot;&gt;userRegisterSendEmailPOST&lt;/span&gt;&lt;span style=&quot;color:#ffd700;&quot;&gt;(&lt;/span&gt;&lt;span style=&quot;color:#56b6c2;&quot;&gt;RegisterSendEmailRequest &lt;/span&gt;&lt;span style=&quot;color:#f59762;&quot;&gt;req&lt;/span&gt;&lt;span style=&quot;color:#ffd700;&quot;&gt;) &lt;/span&gt;&lt;span style=&quot;color:#87cefa;&quot;&gt;{ &lt;/span&gt;&lt;span style=&quot;color:#7f848e;&quot;&gt;// &lt;/span&gt;&lt;span style=&quot;color:#7f848e;font-family:&#39;Menlo-Regular&#39;,monospace;&quot;&gt;이메일 인증 전송&lt;/span&gt;&lt;/pre&gt;" style="rounded=0;whiteSpace=wrap;html=1;fillColor=#2a2a33;strokeColor=#ffffff;" vertex="1" parent="WIyWlLk6GJQsqaUBKTNV-1">
          <mxGeometry x="1040" y="160" width="920" height="40" as="geometry" />
        </mxCell>
        <mxCell id="XOKMStSDW30iechTKge2-76" value="&lt;pre style=&quot;background-color:#282c34;color:#abb2bf;font-family:&#39;JetBrains Mono&#39;,monospace;font-size:9.4pt;&quot;&gt;&lt;pre style=&quot;font-family: &amp;quot;JetBrains Mono&amp;quot;, monospace; font-size: 9.4pt;&quot;&gt;public &lt;span style=&quot;color:#56b6c2;&quot;&gt;ResponseEntity&lt;/span&gt;&lt;span style=&quot;color:#ffd700;&quot;&gt;&amp;lt;&lt;/span&gt;&lt;span style=&quot;color:#56b6c2;&quot;&gt;String&lt;/span&gt;&lt;span style=&quot;color:#ffd700;&quot;&gt;&amp;gt; &lt;/span&gt;&lt;span style=&quot;color:#98c379;&quot;&gt;userRegisterAuthEmailPOST&lt;/span&gt;&lt;span style=&quot;color:#ffd700;&quot;&gt;(&lt;br&gt;&lt;/span&gt;&lt;span style=&quot;color:#ffd700;&quot;&gt;      &lt;/span&gt;&lt;span style=&quot;color:#56b6c2;&quot;&gt;@RequestParam&lt;/span&gt;&lt;span style=&quot;color:#87cefa;&quot;&gt;(&lt;/span&gt;&lt;span style=&quot;color:#e6c07b;&quot;&gt;&quot;email&quot;&lt;/span&gt;&lt;span style=&quot;color:#87cefa;&quot;&gt;) &lt;/span&gt;&lt;span style=&quot;color:#56b6c2;&quot;&gt;String &lt;/span&gt;&lt;span style=&quot;color:#f59762;&quot;&gt;email&lt;/span&gt;&lt;span style=&quot;color:#9da5b4;&quot;&gt;, &lt;/span&gt;&lt;span style=&quot;color:#56b6c2;&quot;&gt;@RequestParam&lt;/span&gt;&lt;span style=&quot;color:#87cefa;&quot;&gt;(&lt;/span&gt;&lt;span style=&quot;color:#e6c07b;&quot;&gt;&quot;key&quot;&lt;/span&gt;&lt;span style=&quot;color:#87cefa;&quot;&gt;) &lt;/span&gt;&lt;span style=&quot;color:#56b6c2;&quot;&gt;String &lt;/span&gt;&lt;span style=&quot;color:#f59762;&quot;&gt;authKey&lt;/span&gt;&lt;span style=&quot;color:#ffd700;&quot;&gt;) &lt;/span&gt;&lt;span style=&quot;color:#87cefa;&quot;&gt;{ &lt;/span&gt;&lt;span style=&quot;color:#7f848e;&quot;&gt;// &lt;/span&gt;&lt;span style=&quot;color:#7f848e;font-family:&#39;Menlo-Regular&#39;,monospace;&quot;&gt;이메일 인증 확인&lt;/span&gt;&lt;/pre&gt;&lt;/pre&gt;" style="rounded=0;whiteSpace=wrap;html=1;fillColor=#2a2a33;strokeColor=#ffffff;" vertex="1" parent="WIyWlLk6GJQsqaUBKTNV-1">
          <mxGeometry x="1040" y="200" width="920" height="40" as="geometry" />
        </mxCell>
        <mxCell id="XOKMStSDW30iechTKge2-77" value="&lt;pre style=&quot;background-color:#282c34;color:#abb2bf;font-family:&#39;JetBrains Mono&#39;,monospace;font-size:9.4pt;&quot;&gt;public&lt;span style=&quot;color:#e06c75;&quot;&gt; &lt;/span&gt;&lt;span style=&quot;color:#56b6c2;&quot;&gt;ResponseEntity&lt;/span&gt;&lt;span style=&quot;color:#ffd700;&quot;&gt;&amp;lt;&lt;/span&gt;&lt;span style=&quot;color:#56b6c2;&quot;&gt;String&lt;/span&gt;&lt;span style=&quot;color:#ffd700;&quot;&gt;&amp;gt; &lt;/span&gt;&lt;span style=&quot;color:#98c379;&quot;&gt;userRegisterPOST&lt;/span&gt;&lt;span style=&quot;color:#ffd700;&quot;&gt;(&lt;/span&gt;&lt;span style=&quot;color:#56b6c2;&quot;&gt;RegisterRequest &lt;/span&gt;&lt;span style=&quot;color:#f59762;&quot;&gt;req&lt;/span&gt;&lt;span style=&quot;color:#ffd700;&quot;&gt;) &lt;/span&gt;&lt;span style=&quot;color:#87cefa;&quot;&gt;{ &lt;/span&gt;&lt;span style=&quot;color:#7f848e;&quot;&gt;// &lt;/span&gt;&lt;span style=&quot;color:#7f848e;font-family:&#39;Menlo-Regular&#39;,monospace;&quot;&gt;회원가입 실행&lt;/span&gt;&lt;/pre&gt;" style="rounded=0;whiteSpace=wrap;html=1;fillColor=#2a2a33;strokeColor=#ffffff;" vertex="1" parent="WIyWlLk6GJQsqaUBKTNV-1">
          <mxGeometry x="1040" y="240" width="920" height="40" as="geometry" />
        </mxCell>
        <mxCell id="XOKMStSDW30iechTKge2-79" value="&lt;pre style=&quot;background-color:#282c34;color:#abb2bf;font-family:&#39;JetBrains Mono&#39;,monospace;font-size:9.4pt;&quot;&gt;Api/UseCase&lt;/pre&gt;" style="rounded=0;whiteSpace=wrap;html=1;fillColor=#2a2a33;strokeColor=#FFFFFF;" vertex="1" parent="WIyWlLk6GJQsqaUBKTNV-1">
          <mxGeometry x="200" y="-80" width="280" height="40" as="geometry" />
        </mxCell>
        <mxCell id="XOKMStSDW30iechTKge2-86" value="&lt;pre style=&quot;background-color:#282c34;color:#abb2bf;font-family:&#39;JetBrains Mono&#39;,monospace;font-size:9.4pt;&quot;&gt;Api/Controller&lt;/pre&gt;" style="rounded=0;whiteSpace=wrap;html=1;fillColor=#2a2a33;strokeColor=#ffffff;" vertex="1" parent="WIyWlLk6GJQsqaUBKTNV-1">
          <mxGeometry x="1360" y="-800" width="280" height="40" as="geometry" />
        </mxCell>
        <mxCell id="XOKMStSDW30iechTKge2-88" value="&lt;pre style=&quot;background-color:#282c34;color:#abb2bf;font-family:&#39;JetBrains Mono&#39;,monospace;font-size:9.4pt;&quot;&gt;&lt;pre style=&quot;font-family: &amp;quot;JetBrains Mono&amp;quot;, monospace; font-size: 9.4pt;&quot;&gt;public class &lt;span style=&quot;color:#56b6c2;&quot;&gt;ViewController &lt;/span&gt;&lt;span style=&quot;color:#ffd700;&quot;&gt;{ &lt;/span&gt;&lt;span style=&quot;color:#7f848e;&quot;&gt;// &lt;/span&gt;&lt;span style=&quot;color:#7f848e;font-family:&#39;Menlo-Regular&#39;,monospace;&quot;&gt;화면 이동과 관련된 컨트롤러&lt;/span&gt;&lt;/pre&gt;&lt;/pre&gt;" style="rounded=0;whiteSpace=wrap;html=1;fillColor=#2a2a33;strokeColor=#FFFFFF;" vertex="1" parent="WIyWlLk6GJQsqaUBKTNV-1">
          <mxGeometry x="1080" y="-720" width="840" height="40" as="geometry" />
        </mxCell>
        <mxCell id="XOKMStSDW30iechTKge2-204" style="edgeStyle=entityRelationEdgeStyle;rounded=1;orthogonalLoop=1;jettySize=auto;html=1;entryX=0;entryY=0.5;entryDx=0;entryDy=0;" edge="1" parent="WIyWlLk6GJQsqaUBKTNV-1" source="XOKMStSDW30iechTKge2-89" target="XOKMStSDW30iechTKge2-188">
          <mxGeometry relative="1" as="geometry" />
        </mxCell>
        <mxCell id="XOKMStSDW30iechTKge2-89" value="&lt;pre style=&quot;background-color:#282c34;color:#abb2bf;font-family:&#39;JetBrains Mono&#39;,monospace;font-size:9.4pt;&quot;&gt;&lt;pre style=&quot;font-family: &amp;quot;JetBrains Mono&amp;quot;, monospace; font-size: 9.4pt;&quot;&gt;public &lt;span style=&quot;color:#56b6c2;&quot;&gt;String &lt;/span&gt;&lt;span style=&quot;color:#98c379;&quot;&gt;homeGET&lt;/span&gt;&lt;span style=&quot;color:#ffd700;&quot;&gt;() &lt;/span&gt;&lt;span style=&quot;color:#87cefa;&quot;&gt;{ &lt;/span&gt;&lt;span style=&quot;color:#7f848e;&quot;&gt;// &lt;/span&gt;&lt;span style=&quot;color:#7f848e;font-family:&#39;Menlo-Regular&#39;,monospace;&quot;&gt;홈 화면 이동&lt;/span&gt;&lt;/pre&gt;&lt;/pre&gt;" style="rounded=0;whiteSpace=wrap;html=1;fillColor=#2a2a33;strokeColor=#FFFFFF;" vertex="1" parent="WIyWlLk6GJQsqaUBKTNV-1">
          <mxGeometry x="1040" y="-680" width="920" height="40" as="geometry" />
        </mxCell>
        <mxCell id="XOKMStSDW30iechTKge2-205" style="edgeStyle=entityRelationEdgeStyle;rounded=1;orthogonalLoop=1;jettySize=auto;html=1;entryX=0;entryY=0.5;entryDx=0;entryDy=0;" edge="1" parent="WIyWlLk6GJQsqaUBKTNV-1" source="XOKMStSDW30iechTKge2-90" target="XOKMStSDW30iechTKge2-190">
          <mxGeometry relative="1" as="geometry" />
        </mxCell>
        <mxCell id="XOKMStSDW30iechTKge2-90" value="&lt;pre style=&quot;background-color:#282c34;color:#abb2bf;font-family:&#39;JetBrains Mono&#39;,monospace;font-size:9.4pt;&quot;&gt;&lt;pre style=&quot;font-family: &amp;quot;JetBrains Mono&amp;quot;, monospace; font-size: 9.4pt;&quot;&gt;public &lt;span style=&quot;color:#56b6c2;&quot;&gt;String &lt;/span&gt;&lt;span style=&quot;color:#98c379;&quot;&gt;userRegisterGET&lt;/span&gt;&lt;span style=&quot;color:#ffd700;&quot;&gt;() &lt;/span&gt;&lt;span style=&quot;color:#87cefa;&quot;&gt;{ &lt;/span&gt;&lt;span style=&quot;color:#7f848e;&quot;&gt;// &lt;/span&gt;&lt;span style=&quot;color:#7f848e;font-family:&#39;Menlo-Regular&#39;,monospace;&quot;&gt;회원가입 화면 이동&lt;/span&gt;&lt;/pre&gt;&lt;/pre&gt;" style="rounded=0;whiteSpace=wrap;html=1;fillColor=#2a2a33;strokeColor=#FFFFFF;" vertex="1" parent="WIyWlLk6GJQsqaUBKTNV-1">
          <mxGeometry x="1040" y="-640" width="920" height="40" as="geometry" />
        </mxCell>
        <mxCell id="XOKMStSDW30iechTKge2-206" style="edgeStyle=entityRelationEdgeStyle;rounded=1;orthogonalLoop=1;jettySize=auto;html=1;entryX=0;entryY=0.5;entryDx=0;entryDy=0;" edge="1" parent="WIyWlLk6GJQsqaUBKTNV-1" source="XOKMStSDW30iechTKge2-91" target="XOKMStSDW30iechTKge2-192">
          <mxGeometry relative="1" as="geometry" />
        </mxCell>
        <mxCell id="XOKMStSDW30iechTKge2-91" value="&lt;pre style=&quot;background-color:#282c34;color:#abb2bf;font-family:&#39;JetBrains Mono&#39;,monospace;font-size:9.4pt;&quot;&gt;&lt;pre style=&quot;font-family: &amp;quot;JetBrains Mono&amp;quot;, monospace; font-size: 9.4pt;&quot;&gt;public &lt;span style=&quot;color:#56b6c2;&quot;&gt;String &lt;/span&gt;&lt;span style=&quot;color:#98c379;&quot;&gt;userLoginGET&lt;/span&gt;&lt;span style=&quot;color:#ffd700;&quot;&gt;() &lt;/span&gt;&lt;span style=&quot;color:#87cefa;&quot;&gt;{ &lt;/span&gt;&lt;span style=&quot;color:#7f848e;&quot;&gt;// &lt;/span&gt;&lt;span style=&quot;color:#7f848e;font-family:&#39;Menlo-Regular&#39;,monospace;&quot;&gt;로그인 화면 이동&lt;/span&gt;&lt;/pre&gt;&lt;/pre&gt;" style="rounded=0;whiteSpace=wrap;html=1;fillColor=#2a2a33;strokeColor=#FFFFFF;" vertex="1" parent="WIyWlLk6GJQsqaUBKTNV-1">
          <mxGeometry x="1040" y="-600" width="920" height="40" as="geometry" />
        </mxCell>
        <mxCell id="XOKMStSDW30iechTKge2-208" style="edgeStyle=entityRelationEdgeStyle;rounded=1;orthogonalLoop=1;jettySize=auto;html=1;entryX=0;entryY=0.5;entryDx=0;entryDy=0;" edge="1" parent="WIyWlLk6GJQsqaUBKTNV-1" source="XOKMStSDW30iechTKge2-92" target="XOKMStSDW30iechTKge2-193">
          <mxGeometry relative="1" as="geometry" />
        </mxCell>
        <mxCell id="XOKMStSDW30iechTKge2-92" value="&lt;pre style=&quot;background-color:#282c34;color:#abb2bf;font-family:&#39;JetBrains Mono&#39;,monospace;font-size:9.4pt;&quot;&gt;&lt;pre style=&quot;font-family: &amp;quot;JetBrains Mono&amp;quot;, monospace; font-size: 9.4pt;&quot;&gt;public &lt;span style=&quot;color:#56b6c2;&quot;&gt;String &lt;/span&gt;&lt;span style=&quot;color:#98c379;&quot;&gt;userRegisterAuthEmailGET&lt;/span&gt;&lt;span style=&quot;color:#ffd700;&quot;&gt;(&lt;/span&gt;&lt;span style=&quot;color:#56b6c2;&quot;&gt;@RequestParam&lt;/span&gt;&lt;span style=&quot;color:#87cefa;&quot;&gt;(&lt;/span&gt;&lt;span style=&quot;color:#e6c07b;&quot;&gt;&quot;email&quot;&lt;/span&gt;&lt;span style=&quot;color:#87cefa;&quot;&gt;) &lt;/span&gt;&lt;span style=&quot;color:#56b6c2;&quot;&gt;String &lt;/span&gt;&lt;span style=&quot;color:#f59762;&quot;&gt;email&lt;/span&gt;&lt;span style=&quot;color:#9da5b4;&quot;&gt;,&lt;br&gt;&lt;/span&gt;&lt;span style=&quot;color:#9da5b4;&quot;&gt;      &lt;/span&gt;&lt;span style=&quot;color:#56b6c2;&quot;&gt;@RequestParam&lt;/span&gt;&lt;span style=&quot;color:#87cefa;&quot;&gt;(&lt;/span&gt;&lt;span style=&quot;color:#e6c07b;&quot;&gt;&quot;key&quot;&lt;/span&gt;&lt;span style=&quot;color:#87cefa;&quot;&gt;) &lt;/span&gt;&lt;span style=&quot;color:#56b6c2;&quot;&gt;String &lt;/span&gt;&lt;span style=&quot;color:#f59762;&quot;&gt;authKey&lt;/span&gt;&lt;span style=&quot;color:#ffd700;&quot;&gt;) &lt;/span&gt;&lt;span style=&quot;color:#87cefa;&quot;&gt;{ &lt;/span&gt;&lt;span style=&quot;color:#7f848e;&quot;&gt;// &lt;/span&gt;&lt;span style=&quot;color:#7f848e;font-family:&#39;Menlo-Regular&#39;,monospace;&quot;&gt;회원가입 이메일 인증 확인 화면 이동&lt;/span&gt;&lt;/pre&gt;&lt;/pre&gt;" style="rounded=0;whiteSpace=wrap;html=1;fillColor=#2a2a33;strokeColor=#FFFFFF;" vertex="1" parent="WIyWlLk6GJQsqaUBKTNV-1">
          <mxGeometry x="1040" y="-560" width="920" height="40" as="geometry" />
        </mxCell>
        <mxCell id="XOKMStSDW30iechTKge2-207" style="edgeStyle=entityRelationEdgeStyle;rounded=1;orthogonalLoop=1;jettySize=auto;html=1;entryX=0;entryY=0.5;entryDx=0;entryDy=0;" edge="1" parent="WIyWlLk6GJQsqaUBKTNV-1" source="XOKMStSDW30iechTKge2-93" target="XOKMStSDW30iechTKge2-194">
          <mxGeometry relative="1" as="geometry" />
        </mxCell>
        <mxCell id="XOKMStSDW30iechTKge2-93" value="&lt;pre style=&quot;background-color:#282c34;color:#abb2bf;font-family:&#39;JetBrains Mono&#39;,monospace;font-size:9.4pt;&quot;&gt;&lt;pre style=&quot;font-family: &amp;quot;JetBrains Mono&amp;quot;, monospace; font-size: 9.4pt;&quot;&gt;public &lt;span style=&quot;color:#56b6c2;&quot;&gt;String &lt;/span&gt;&lt;span style=&quot;color:#98c379;&quot;&gt;postVocalistGET&lt;/span&gt;&lt;span style=&quot;color:#ffd700;&quot;&gt;() &lt;/span&gt;&lt;span style=&quot;color:#87cefa;&quot;&gt;{ &lt;/span&gt;&lt;span style=&quot;color:#7f848e;&quot;&gt;// &lt;/span&gt;&lt;span style=&quot;color:#7f848e;font-family:&#39;Menlo-Regular&#39;,monospace;&quot;&gt;가수 포스트 화면 이동&lt;br&gt;&lt;/span&gt;&lt;/pre&gt;&lt;/pre&gt;" style="rounded=0;whiteSpace=wrap;html=1;fillColor=#2a2a33;strokeColor=#FFFFFF;" vertex="1" parent="WIyWlLk6GJQsqaUBKTNV-1">
          <mxGeometry x="1040" y="-520" width="920" height="40" as="geometry" />
        </mxCell>
        <mxCell id="XOKMStSDW30iechTKge2-209" style="edgeStyle=entityRelationEdgeStyle;rounded=1;orthogonalLoop=1;jettySize=auto;html=1;entryX=0;entryY=0.5;entryDx=0;entryDy=0;" edge="1" parent="WIyWlLk6GJQsqaUBKTNV-1" source="XOKMStSDW30iechTKge2-94" target="XOKMStSDW30iechTKge2-195">
          <mxGeometry relative="1" as="geometry" />
        </mxCell>
        <mxCell id="XOKMStSDW30iechTKge2-94" value="&lt;pre style=&quot;background-color:#282c34;color:#abb2bf;font-family:&#39;JetBrains Mono&#39;,monospace;font-size:9.4pt;&quot;&gt;&lt;pre style=&quot;font-family: &amp;quot;JetBrains Mono&amp;quot;, monospace; font-size: 9.4pt;&quot;&gt;public &lt;span style=&quot;color:#56b6c2;&quot;&gt;String &lt;/span&gt;&lt;span style=&quot;color:#98c379;&quot;&gt;postArtistGET&lt;/span&gt;&lt;span style=&quot;color:#ffd700;&quot;&gt;() &lt;/span&gt;&lt;span style=&quot;color:#87cefa;&quot;&gt;{ &lt;/span&gt;&lt;span style=&quot;color:#7f848e;&quot;&gt;// &lt;/span&gt;&lt;span style=&quot;color:#7f848e;font-family:&#39;Menlo-Regular&#39;,monospace;&quot;&gt;아티스트 포스트 화면 이동&lt;/span&gt;&lt;/pre&gt;&lt;/pre&gt;" style="rounded=0;whiteSpace=wrap;html=1;fillColor=#2a2a33;strokeColor=#FFFFFF;" vertex="1" parent="WIyWlLk6GJQsqaUBKTNV-1">
          <mxGeometry x="1040" y="-480" width="920" height="40" as="geometry" />
        </mxCell>
        <mxCell id="XOKMStSDW30iechTKge2-214" style="edgeStyle=entityRelationEdgeStyle;rounded=1;orthogonalLoop=1;jettySize=auto;html=1;entryX=0;entryY=0.5;entryDx=0;entryDy=0;" edge="1" parent="WIyWlLk6GJQsqaUBKTNV-1" source="XOKMStSDW30iechTKge2-95" target="XOKMStSDW30iechTKge2-196">
          <mxGeometry relative="1" as="geometry" />
        </mxCell>
        <mxCell id="XOKMStSDW30iechTKge2-95" value="&lt;pre style=&quot;background-color:#282c34;color:#abb2bf;font-family:&#39;JetBrains Mono&#39;,monospace;font-size:9.4pt;&quot;&gt;&lt;pre style=&quot;font-family: &amp;quot;JetBrains Mono&amp;quot;, monospace; font-size: 9.4pt;&quot;&gt;public &lt;span style=&quot;color:#56b6c2;&quot;&gt;String &lt;/span&gt;&lt;span style=&quot;color:#98c379;&quot;&gt;postSongGET&lt;/span&gt;&lt;span style=&quot;color:#ffd700;&quot;&gt;() &lt;/span&gt;&lt;span style=&quot;color:#87cefa;&quot;&gt;{ &lt;/span&gt;&lt;span style=&quot;color:#7f848e;&quot;&gt;// &lt;/span&gt;&lt;span style=&quot;color:#7f848e;font-family:&#39;Menlo-Regular&#39;,monospace;&quot;&gt;노래 포스트 화면 이동&lt;/span&gt;&lt;/pre&gt;&lt;/pre&gt;" style="rounded=0;whiteSpace=wrap;html=1;fillColor=#2a2a33;strokeColor=#FFFFFF;" vertex="1" parent="WIyWlLk6GJQsqaUBKTNV-1">
          <mxGeometry x="1040" y="-440" width="920" height="40" as="geometry" />
        </mxCell>
        <mxCell id="XOKMStSDW30iechTKge2-213" style="edgeStyle=entityRelationEdgeStyle;rounded=1;orthogonalLoop=1;jettySize=auto;html=1;entryX=0;entryY=0.5;entryDx=0;entryDy=0;" edge="1" parent="WIyWlLk6GJQsqaUBKTNV-1" source="XOKMStSDW30iechTKge2-96" target="XOKMStSDW30iechTKge2-197">
          <mxGeometry relative="1" as="geometry" />
        </mxCell>
        <mxCell id="XOKMStSDW30iechTKge2-96" value="&lt;pre style=&quot;background-color:#282c34;color:#abb2bf;font-family:&#39;JetBrains Mono&#39;,monospace;font-size:9.4pt;&quot;&gt;&lt;pre style=&quot;font-family: &amp;quot;JetBrains Mono&amp;quot;, monospace; font-size: 9.4pt;&quot;&gt;public &lt;span style=&quot;color:#56b6c2;&quot;&gt;String &lt;/span&gt;&lt;span style=&quot;color:#98c379;&quot;&gt;searchVocalistGET&lt;/span&gt;&lt;span style=&quot;color:#ffd700;&quot;&gt;() &lt;/span&gt;&lt;span style=&quot;color:#87cefa;&quot;&gt;{ &lt;/span&gt;&lt;span style=&quot;color:#7f848e;&quot;&gt;// &lt;/span&gt;&lt;span style=&quot;color:#7f848e;font-family:&#39;Menlo-Regular&#39;,monospace;&quot;&gt;가수 검색 화면 이동&lt;/span&gt;&lt;/pre&gt;&lt;/pre&gt;" style="rounded=0;whiteSpace=wrap;html=1;fillColor=#2a2a33;strokeColor=#FFFFFF;" vertex="1" parent="WIyWlLk6GJQsqaUBKTNV-1">
          <mxGeometry x="1040" y="-400" width="920" height="40" as="geometry" />
        </mxCell>
        <mxCell id="XOKMStSDW30iechTKge2-212" style="edgeStyle=entityRelationEdgeStyle;rounded=1;orthogonalLoop=1;jettySize=auto;html=1;entryX=0;entryY=0.5;entryDx=0;entryDy=0;" edge="1" parent="WIyWlLk6GJQsqaUBKTNV-1" source="XOKMStSDW30iechTKge2-97" target="XOKMStSDW30iechTKge2-198">
          <mxGeometry relative="1" as="geometry" />
        </mxCell>
        <mxCell id="XOKMStSDW30iechTKge2-97" value="&lt;pre style=&quot;background-color:#282c34;color:#abb2bf;font-family:&#39;JetBrains Mono&#39;,monospace;font-size:9.4pt;&quot;&gt;&lt;pre style=&quot;font-family: &amp;quot;JetBrains Mono&amp;quot;, monospace; font-size: 9.4pt;&quot;&gt;public &lt;span style=&quot;color:#56b6c2;&quot;&gt;String &lt;/span&gt;&lt;span style=&quot;color:#98c379;&quot;&gt;searchArtistGET&lt;/span&gt;&lt;span style=&quot;color:#ffd700;&quot;&gt;() &lt;/span&gt;&lt;span style=&quot;color:#87cefa;&quot;&gt;{ &lt;/span&gt;&lt;span style=&quot;color:#7f848e;&quot;&gt;// &lt;/span&gt;&lt;span style=&quot;color:#7f848e;font-family:&#39;Menlo-Regular&#39;,monospace;&quot;&gt;아티스트 검색 화면 이동&lt;/span&gt;&lt;/pre&gt;&lt;/pre&gt;" style="rounded=0;whiteSpace=wrap;html=1;fillColor=#2a2a33;strokeColor=#FFFFFF;" vertex="1" parent="WIyWlLk6GJQsqaUBKTNV-1">
          <mxGeometry x="1040" y="-360" width="920" height="40" as="geometry" />
        </mxCell>
        <mxCell id="XOKMStSDW30iechTKge2-211" style="edgeStyle=entityRelationEdgeStyle;rounded=1;orthogonalLoop=1;jettySize=auto;html=1;entryX=0;entryY=0.5;entryDx=0;entryDy=0;" edge="1" parent="WIyWlLk6GJQsqaUBKTNV-1" source="XOKMStSDW30iechTKge2-98" target="XOKMStSDW30iechTKge2-199">
          <mxGeometry relative="1" as="geometry" />
        </mxCell>
        <mxCell id="XOKMStSDW30iechTKge2-98" value="&lt;pre style=&quot;background-color:#282c34;color:#abb2bf;font-family:&#39;JetBrains Mono&#39;,monospace;font-size:9.4pt;&quot;&gt;&lt;pre style=&quot;font-family: &amp;quot;JetBrains Mono&amp;quot;, monospace; font-size: 9.4pt;&quot;&gt;public &lt;span style=&quot;color:#56b6c2;&quot;&gt;String &lt;/span&gt;&lt;span style=&quot;color:#98c379;&quot;&gt;searchSongGET&lt;/span&gt;&lt;span style=&quot;color:#ffd700;&quot;&gt;() &lt;/span&gt;&lt;span style=&quot;color:#87cefa;&quot;&gt;{ &lt;/span&gt;&lt;span style=&quot;color:#7f848e;&quot;&gt;// &lt;/span&gt;&lt;span style=&quot;color:#7f848e;font-family:&#39;Menlo-Regular&#39;,monospace;&quot;&gt;노래 검색 화면 이동&lt;/span&gt;&lt;/pre&gt;&lt;/pre&gt;" style="rounded=0;whiteSpace=wrap;html=1;fillColor=#2a2a33;strokeColor=#FFFFFF;" vertex="1" parent="WIyWlLk6GJQsqaUBKTNV-1">
          <mxGeometry x="1040" y="-320" width="920" height="40" as="geometry" />
        </mxCell>
        <mxCell id="XOKMStSDW30iechTKge2-118" style="edgeStyle=orthogonalEdgeStyle;rounded=0;orthogonalLoop=1;jettySize=auto;html=1;exitX=0.5;exitY=1;exitDx=0;exitDy=0;entryX=0.5;entryY=0;entryDx=0;entryDy=0;fillColor=#f5f5f5;strokeColor=#ffffff;" edge="1" parent="WIyWlLk6GJQsqaUBKTNV-1" source="XOKMStSDW30iechTKge2-115" target="XOKMStSDW30iechTKge2-117">
          <mxGeometry relative="1" as="geometry" />
        </mxCell>
        <mxCell id="XOKMStSDW30iechTKge2-126" style="edgeStyle=orthogonalEdgeStyle;rounded=0;orthogonalLoop=1;jettySize=auto;html=1;exitX=0.5;exitY=1;exitDx=0;exitDy=0;fillColor=#f5f5f5;strokeColor=#ffffff;" edge="1" parent="WIyWlLk6GJQsqaUBKTNV-1" source="XOKMStSDW30iechTKge2-115" target="XOKMStSDW30iechTKge2-124">
          <mxGeometry relative="1" as="geometry" />
        </mxCell>
        <mxCell id="XOKMStSDW30iechTKge2-115" value="&lt;pre style=&quot;background-color:#282c34;color:#abb2bf;font-family:&#39;JetBrains Mono&#39;,monospace;font-size:9.4pt;&quot;&gt;vw-core&lt;/pre&gt;" style="rounded=0;whiteSpace=wrap;html=1;fillColor=#2a2a33;strokeColor=#ffffff;" vertex="1" parent="WIyWlLk6GJQsqaUBKTNV-1">
          <mxGeometry x="-1480" y="-200" width="160" height="40" as="geometry" />
        </mxCell>
        <mxCell id="XOKMStSDW30iechTKge2-116" value="" style="rounded=0;whiteSpace=wrap;html=1;fillColor=#6a00ff;fontColor=#ffffff;strokeColor=#3700CC;" vertex="1" parent="WIyWlLk6GJQsqaUBKTNV-1">
          <mxGeometry x="-1320" y="-60" width="1000" height="140" as="geometry" />
        </mxCell>
        <mxCell id="XOKMStSDW30iechTKge2-117" value="&lt;pre style=&quot;background-color: rgb(40, 44, 52); color: rgb(171, 178, 191); font-family: &amp;quot;JetBrains Mono&amp;quot;, monospace; font-size: 9.4pt;&quot;&gt;Core/DTO&lt;/pre&gt;" style="rounded=0;whiteSpace=wrap;html=1;fillColor=#2a2a33;strokeColor=#ffffff;" vertex="1" parent="WIyWlLk6GJQsqaUBKTNV-1">
          <mxGeometry x="-960" y="-80" width="280" height="40" as="geometry" />
        </mxCell>
        <mxCell id="XOKMStSDW30iechTKge2-119" value="" style="rounded=0;whiteSpace=wrap;html=1;fillColor=#6a00ff;fontColor=#ffffff;strokeColor=#3700CC;" vertex="1" parent="WIyWlLk6GJQsqaUBKTNV-1">
          <mxGeometry x="-2480" y="-60" width="1000" height="140" as="geometry" />
        </mxCell>
        <mxCell id="XOKMStSDW30iechTKge2-124" value="&lt;pre style=&quot;background-color: rgb(40, 44, 52); color: rgb(171, 178, 191); font-family: &amp;quot;JetBrains Mono&amp;quot;, monospace; font-size: 9.4pt;&quot;&gt;&lt;pre style=&quot;font-family: &amp;quot;JetBrains Mono&amp;quot;, monospace; font-size: 9.4pt;&quot;&gt;Core/Exception&lt;/pre&gt;&lt;/pre&gt;" style="rounded=0;whiteSpace=wrap;html=1;fillColor=#2a2a33;strokeColor=#ffffff;" vertex="1" parent="WIyWlLk6GJQsqaUBKTNV-1">
          <mxGeometry x="-2120" y="-80" width="280" height="40" as="geometry" />
        </mxCell>
        <mxCell id="XOKMStSDW30iechTKge2-127" style="edgeStyle=orthogonalEdgeStyle;rounded=0;orthogonalLoop=1;jettySize=auto;html=1;exitX=0.5;exitY=1;exitDx=0;exitDy=0;entryX=0.5;entryY=0;entryDx=0;entryDy=0;fillColor=#f5f5f5;strokeColor=#FFFFFF;" edge="1" parent="WIyWlLk6GJQsqaUBKTNV-1" source="XOKMStSDW30iechTKge2-129" target="XOKMStSDW30iechTKge2-131">
          <mxGeometry relative="1" as="geometry" />
        </mxCell>
        <mxCell id="XOKMStSDW30iechTKge2-128" style="edgeStyle=orthogonalEdgeStyle;rounded=0;orthogonalLoop=1;jettySize=auto;html=1;exitX=0.5;exitY=1;exitDx=0;exitDy=0;" edge="1" parent="WIyWlLk6GJQsqaUBKTNV-1" source="XOKMStSDW30iechTKge2-129" target="XOKMStSDW30iechTKge2-133">
          <mxGeometry relative="1" as="geometry" />
        </mxCell>
        <mxCell id="XOKMStSDW30iechTKge2-137" style="edgeStyle=orthogonalEdgeStyle;rounded=0;orthogonalLoop=1;jettySize=auto;html=1;entryX=0.5;entryY=0;entryDx=0;entryDy=0;exitX=0.5;exitY=1;exitDx=0;exitDy=0;fillColor=#f5f5f5;strokeColor=#ffffff;" edge="1" parent="WIyWlLk6GJQsqaUBKTNV-1" source="XOKMStSDW30iechTKge2-129" target="XOKMStSDW30iechTKge2-136">
          <mxGeometry relative="1" as="geometry" />
        </mxCell>
        <mxCell id="XOKMStSDW30iechTKge2-129" value="&lt;pre style=&quot;background-color:#282c34;color:#abb2bf;font-family:&#39;JetBrains Mono&#39;,monospace;font-size:9.4pt;&quot;&gt;vw-domain&lt;/pre&gt;" style="rounded=0;whiteSpace=wrap;html=1;fillColor=#2a2a33;strokeColor=#ffffff;" vertex="1" parent="WIyWlLk6GJQsqaUBKTNV-1">
          <mxGeometry x="-4380" y="-200" width="160" height="40" as="geometry" />
        </mxCell>
        <mxCell id="XOKMStSDW30iechTKge2-130" value="" style="rounded=0;whiteSpace=wrap;html=1;fillColor=#60a917;fontColor=#ffffff;strokeColor=#2D7600;" vertex="1" parent="WIyWlLk6GJQsqaUBKTNV-1">
          <mxGeometry x="-3640" y="-60" width="1000" height="140" as="geometry" />
        </mxCell>
        <mxCell id="XOKMStSDW30iechTKge2-131" value="&lt;pre style=&quot;background-color: rgb(40, 44, 52); color: rgb(171, 178, 191); font-family: &amp;quot;JetBrains Mono&amp;quot;, monospace; font-size: 9.4pt;&quot;&gt;Domain/Service&lt;/pre&gt;" style="rounded=0;whiteSpace=wrap;html=1;fillColor=#2a2a33;strokeColor=#ffffff;" vertex="1" parent="WIyWlLk6GJQsqaUBKTNV-1">
          <mxGeometry x="-3280" y="-80" width="280" height="40" as="geometry" />
        </mxCell>
        <mxCell id="XOKMStSDW30iechTKge2-132" value="" style="rounded=0;whiteSpace=wrap;html=1;fillColor=#60a917;fontColor=#ffffff;strokeColor=#2D7600;" vertex="1" parent="WIyWlLk6GJQsqaUBKTNV-1">
          <mxGeometry x="-4800" y="-60" width="1000" height="140" as="geometry" />
        </mxCell>
        <mxCell id="XOKMStSDW30iechTKge2-133" value="&lt;pre style=&quot;background-color: rgb(40, 44, 52); color: rgb(171, 178, 191); font-family: &amp;quot;JetBrains Mono&amp;quot;, monospace; font-size: 9.4pt;&quot;&gt;&lt;pre style=&quot;font-family: &amp;quot;JetBrains Mono&amp;quot;, monospace; font-size: 9.4pt;&quot;&gt;Domain/Entity&lt;/pre&gt;&lt;/pre&gt;" style="rounded=0;whiteSpace=wrap;html=1;fillColor=#2a2a33;strokeColor=#ffffff;" vertex="1" parent="WIyWlLk6GJQsqaUBKTNV-1">
          <mxGeometry x="-4440" y="-80" width="280" height="40" as="geometry" />
        </mxCell>
        <mxCell id="XOKMStSDW30iechTKge2-135" value="" style="rounded=0;whiteSpace=wrap;html=1;fillColor=#60a917;fontColor=#ffffff;strokeColor=#2D7600;" vertex="1" parent="WIyWlLk6GJQsqaUBKTNV-1">
          <mxGeometry x="-5960" y="-60" width="1000" height="140" as="geometry" />
        </mxCell>
        <mxCell id="XOKMStSDW30iechTKge2-136" value="&lt;pre style=&quot;background-color: rgb(40, 44, 52); color: rgb(171, 178, 191); font-family: &amp;quot;JetBrains Mono&amp;quot;, monospace; font-size: 9.4pt;&quot;&gt;&lt;pre style=&quot;font-family: &amp;quot;JetBrains Mono&amp;quot;, monospace; font-size: 9.4pt;&quot;&gt;Domain/Repository&lt;/pre&gt;&lt;/pre&gt;" style="rounded=0;whiteSpace=wrap;html=1;fillColor=#2a2a33;strokeColor=#ffffff;" vertex="1" parent="WIyWlLk6GJQsqaUBKTNV-1">
          <mxGeometry x="-5600" y="-80" width="280" height="40" as="geometry" />
        </mxCell>
        <mxCell id="XOKMStSDW30iechTKge2-138" value="" style="rounded=0;whiteSpace=wrap;html=1;fillColor=#fa6800;strokeColor=#C73500;fontColor=#000000;" vertex="1" parent="WIyWlLk6GJQsqaUBKTNV-1">
          <mxGeometry x="-7120" y="-60" width="1000" height="140" as="geometry" />
        </mxCell>
        <mxCell id="XOKMStSDW30iechTKge2-139" value="&lt;pre style=&quot;background-color: rgb(40, 44, 52); color: rgb(171, 178, 191); font-family: &amp;quot;JetBrains Mono&amp;quot;, monospace; font-size: 9.4pt;&quot;&gt;&lt;pre style=&quot;font-family: &amp;quot;JetBrains Mono&amp;quot;, monospace; font-size: 9.4pt;&quot;&gt;vw-datebase&lt;/pre&gt;&lt;/pre&gt;" style="rounded=0;whiteSpace=wrap;html=1;fillColor=#2a2a33;strokeColor=#ffffff;" vertex="1" parent="WIyWlLk6GJQsqaUBKTNV-1">
          <mxGeometry x="-6760" y="-80" width="280" height="40" as="geometry" />
        </mxCell>
        <mxCell id="XOKMStSDW30iechTKge2-148" value="" style="rounded=0;whiteSpace=wrap;html=1;fillColor=#a20025;fontColor=#ffffff;strokeColor=#6F0000;" vertex="1" parent="WIyWlLk6GJQsqaUBKTNV-1">
          <mxGeometry x="-5960" y="-380" width="1000" height="140" as="geometry" />
        </mxCell>
        <mxCell id="XOKMStSDW30iechTKge2-149" value="" style="rounded=0;whiteSpace=wrap;html=1;fillColor=#a20025;fontColor=#ffffff;strokeColor=#6F0000;" vertex="1" parent="WIyWlLk6GJQsqaUBKTNV-1">
          <mxGeometry x="-5960" y="-700" width="1000" height="140" as="geometry" />
        </mxCell>
        <mxCell id="XOKMStSDW30iechTKge2-150" value="&lt;pre style=&quot;background-color: rgb(40, 44, 52); color: rgb(171, 178, 191); font-family: &amp;quot;JetBrains Mono&amp;quot;, monospace; font-size: 9.4pt;&quot;&gt;&lt;pre style=&quot;font-family: &amp;quot;JetBrains Mono&amp;quot;, monospace; font-size: 9.4pt;&quot;&gt;Infra/Feign&lt;/pre&gt;&lt;/pre&gt;" style="rounded=0;whiteSpace=wrap;html=1;fillColor=#2a2a33;strokeColor=#ffffff;" vertex="1" parent="WIyWlLk6GJQsqaUBKTNV-1">
          <mxGeometry x="-5600" y="-720" width="280" height="40" as="geometry" />
        </mxCell>
        <mxCell id="XOKMStSDW30iechTKge2-151" style="edgeStyle=orthogonalEdgeStyle;rounded=0;orthogonalLoop=1;jettySize=auto;html=1;fillColor=#f5f5f5;strokeColor=#FFFFFF;" edge="1" parent="WIyWlLk6GJQsqaUBKTNV-1" source="XOKMStSDW30iechTKge2-153" target="XOKMStSDW30iechTKge2-150">
          <mxGeometry relative="1" as="geometry" />
        </mxCell>
        <mxCell id="XOKMStSDW30iechTKge2-152" style="edgeStyle=orthogonalEdgeStyle;rounded=0;orthogonalLoop=1;jettySize=auto;html=1;fillColor=#f5f5f5;strokeColor=#FFFFFF;" edge="1" parent="WIyWlLk6GJQsqaUBKTNV-1" source="XOKMStSDW30iechTKge2-153" target="XOKMStSDW30iechTKge2-154">
          <mxGeometry relative="1" as="geometry">
            <Array as="points">
              <mxPoint x="-5460" y="-760" />
              <mxPoint x="-6040" y="-760" />
              <mxPoint x="-6040" y="-440" />
              <mxPoint x="-5460" y="-440" />
            </Array>
          </mxGeometry>
        </mxCell>
        <mxCell id="XOKMStSDW30iechTKge2-153" value="&lt;pre style=&quot;background-color:#282c34;color:#abb2bf;font-family:&#39;JetBrains Mono&#39;,monospace;font-size:9.4pt;&quot;&gt;vw-domain&lt;/pre&gt;" style="rounded=0;whiteSpace=wrap;html=1;fillColor=#2a2a33;strokeColor=#ffffff;" vertex="1" parent="WIyWlLk6GJQsqaUBKTNV-1">
          <mxGeometry x="-5540" y="-840" width="160" height="40" as="geometry" />
        </mxCell>
        <mxCell id="XOKMStSDW30iechTKge2-154" value="&lt;pre style=&quot;background-color: rgb(40, 44, 52); color: rgb(171, 178, 191); font-family: &amp;quot;JetBrains Mono&amp;quot;, monospace; font-size: 9.4pt;&quot;&gt;&lt;pre style=&quot;font-family: &amp;quot;JetBrains Mono&amp;quot;, monospace; font-size: 9.4pt;&quot;&gt;Infra/Redis&lt;/pre&gt;&lt;/pre&gt;" style="rounded=0;whiteSpace=wrap;html=1;fillColor=#2a2a33;strokeColor=#ffffff;" vertex="1" parent="WIyWlLk6GJQsqaUBKTNV-1">
          <mxGeometry x="-5600" y="-400" width="280" height="40" as="geometry" />
        </mxCell>
        <mxCell id="XOKMStSDW30iechTKge2-156" value="&lt;pre style=&quot;background-color:#282c34;color:#abb2bf;font-family:&#39;JetBrains Mono&#39;,monospace;font-size:9.4pt;&quot;&gt;Api/HTML&lt;/pre&gt;" style="rounded=0;whiteSpace=wrap;html=1;fillColor=#2a2a33;strokeColor=#ffffff;" vertex="1" parent="WIyWlLk6GJQsqaUBKTNV-1">
          <mxGeometry x="2520" y="-800" width="280" height="40" as="geometry" />
        </mxCell>
        <mxCell id="XOKMStSDW30iechTKge2-161" value="" style="rounded=0;whiteSpace=wrap;html=1;fillColor=#d80073;strokeColor=#A50040;fontColor=#ffffff;" vertex="1" parent="WIyWlLk6GJQsqaUBKTNV-1">
          <mxGeometry x="3320" y="-220" width="1000" height="140" as="geometry" />
        </mxCell>
        <mxCell id="XOKMStSDW30iechTKge2-162" value="&lt;pre style=&quot;background-color:#282c34;color:#abb2bf;font-family:&#39;JetBrains Mono&#39;,monospace;font-size:9.4pt;&quot;&gt;Api/CSS&lt;/pre&gt;" style="rounded=0;whiteSpace=wrap;html=1;fillColor=#2a2a33;strokeColor=#ffffff;" vertex="1" parent="WIyWlLk6GJQsqaUBKTNV-1">
          <mxGeometry x="3680" y="-240" width="280" height="40" as="geometry" />
        </mxCell>
        <mxCell id="XOKMStSDW30iechTKge2-163" value="" style="rounded=0;whiteSpace=wrap;html=1;fillColor=#1ba1e2;strokeColor=#006EAF;fontColor=#ffffff;" vertex="1" parent="WIyWlLk6GJQsqaUBKTNV-1">
          <mxGeometry x="3320" y="60" width="1000" height="140" as="geometry" />
        </mxCell>
        <mxCell id="XOKMStSDW30iechTKge2-164" value="&lt;pre style=&quot;background-color:#282c34;color:#abb2bf;font-family:&#39;JetBrains Mono&#39;,monospace;font-size:9.4pt;&quot;&gt;Api/JS&lt;/pre&gt;" style="rounded=0;whiteSpace=wrap;html=1;fillColor=#2a2a33;strokeColor=#ffffff;" vertex="1" parent="WIyWlLk6GJQsqaUBKTNV-1">
          <mxGeometry x="3680" y="40" width="280" height="40" as="geometry" />
        </mxCell>
        <mxCell id="XOKMStSDW30iechTKge2-166" value="&lt;pre style=&quot;background-color:#282c34;color:#abb2bf;font-family:&#39;JetBrains Mono&#39;,monospace;font-size:9.4pt;&quot;&gt;&lt;span style=&quot;color:#e06c75;&quot;&gt;public class &lt;/span&gt;&lt;span style=&quot;color:#56b6c2;&quot;&gt;UserRegisterChkIdUseCase &lt;/span&gt;&lt;span style=&quot;color:#ffd700;&quot;&gt;{ &lt;/span&gt;&lt;span style=&quot;color:#7f848e;&quot;&gt;// &lt;/span&gt;&lt;span style=&quot;color:#7f848e;font-family:&#39;Menlo-Regular&#39;,monospace;&quot;&gt;회원가입 아이디 유효성 검사&lt;br&gt;&lt;/span&gt;&lt;/pre&gt;" style="rounded=0;whiteSpace=wrap;html=1;fillColor=#2a2a33;strokeColor=#ffffff;" vertex="1" parent="WIyWlLk6GJQsqaUBKTNV-1">
          <mxGeometry x="-80" width="840" height="40" as="geometry" />
        </mxCell>
        <mxCell id="XOKMStSDW30iechTKge2-170" style="edgeStyle=entityRelationEdgeStyle;rounded=1;orthogonalLoop=1;jettySize=auto;html=1;exitX=1;exitY=0.5;exitDx=0;exitDy=0;entryX=0;entryY=0.5;entryDx=0;entryDy=0;" edge="1" parent="WIyWlLk6GJQsqaUBKTNV-1" source="XOKMStSDW30iechTKge2-167" target="XOKMStSDW30iechTKge2-72">
          <mxGeometry relative="1" as="geometry" />
        </mxCell>
        <mxCell id="XOKMStSDW30iechTKge2-167" value="&lt;meta charset=&quot;utf-8&quot;&gt;&lt;pre style=&quot;border-color: rgb(0, 0, 0); color: rgb(171, 178, 191); font-size: 9.4pt; font-style: normal; font-variant-ligatures: normal; font-variant-caps: normal; font-weight: 400; letter-spacing: normal; orphans: 2; text-align: center; text-indent: 0px; text-transform: none; widows: 2; word-spacing: 0px; -webkit-text-stroke-width: 0px; text-decoration-thickness: initial; text-decoration-style: initial; text-decoration-color: initial; font-family: &amp;quot;JetBrains Mono&amp;quot;, monospace;&quot;&gt;public &lt;span style=&quot;border-color: rgb(0, 0, 0); color: rgb(86, 182, 194);&quot;&gt;ResponseEntity&lt;/span&gt;&lt;span style=&quot;border-color: rgb(0, 0, 0); color: rgb(255, 215, 0);&quot;&gt;&amp;lt;&lt;/span&gt;&lt;span style=&quot;border-color: rgb(0, 0, 0); color: rgb(86, 182, 194);&quot;&gt;String&lt;/span&gt;&lt;span style=&quot;border-color: rgb(0, 0, 0); color: rgb(255, 215, 0);&quot;&gt;&amp;gt; &lt;/span&gt;&lt;span style=&quot;border-color: rgb(0, 0, 0); color: rgb(152, 195, 121);&quot;&gt;execute&lt;/span&gt;&lt;span style=&quot;border-color: rgb(0, 0, 0); color: rgb(255, 215, 0);&quot;&gt;(&lt;/span&gt;&lt;span style=&quot;border-color: rgb(0, 0, 0); color: rgb(86, 182, 194);&quot;&gt;RegisterChkIdRequest &lt;/span&gt;&lt;span style=&quot;border-color: rgb(0, 0, 0); color: rgb(245, 151, 98);&quot;&gt;req&lt;/span&gt;&lt;span style=&quot;border-color: rgb(0, 0, 0); color: rgb(255, 215, 0);&quot;&gt;) &lt;/span&gt;&lt;span style=&quot;border-color: rgb(0, 0, 0); color: rgb(135, 206, 250);&quot;&gt;{&lt;/span&gt;&lt;/pre&gt;" style="rounded=0;whiteSpace=wrap;html=1;fillColor=#2a2a33;strokeColor=#ffffff;" vertex="1" parent="WIyWlLk6GJQsqaUBKTNV-1">
          <mxGeometry x="-120" y="40" width="920" height="40" as="geometry" />
        </mxCell>
        <mxCell id="XOKMStSDW30iechTKge2-168" value="&lt;pre style=&quot;background-color:#282c34;color:#abb2bf;font-family:&#39;JetBrains Mono&#39;,monospace;font-size:9.4pt;&quot;&gt;&lt;pre style=&quot;font-family: &amp;quot;JetBrains Mono&amp;quot;, monospace; font-size: 9.4pt;&quot;&gt;public class &lt;span style=&quot;color:#56b6c2;&quot;&gt;UserRegisterChkNicknameUseCase &lt;/span&gt;&lt;span style=&quot;color:#ffd700;&quot;&gt;{ &lt;/span&gt;&lt;span style=&quot;color:#7f848e;&quot;&gt;// &lt;/span&gt;&lt;span style=&quot;color:#7f848e;font-family:&#39;Menlo-Regular&#39;,monospace;&quot;&gt;닉네임 유효성 검사&lt;br&gt;&lt;/span&gt;&lt;/pre&gt;&lt;/pre&gt;" style="rounded=0;whiteSpace=wrap;html=1;fillColor=#2a2a33;strokeColor=#ffffff;" vertex="1" parent="WIyWlLk6GJQsqaUBKTNV-1">
          <mxGeometry x="-80" y="120" width="840" height="40" as="geometry" />
        </mxCell>
        <mxCell id="XOKMStSDW30iechTKge2-171" style="rounded=1;orthogonalLoop=1;jettySize=auto;html=1;entryX=0;entryY=0.5;entryDx=0;entryDy=0;exitX=1;exitY=0.5;exitDx=0;exitDy=0;edgeStyle=entityRelationEdgeStyle;" edge="1" parent="WIyWlLk6GJQsqaUBKTNV-1" source="XOKMStSDW30iechTKge2-169" target="XOKMStSDW30iechTKge2-73">
          <mxGeometry relative="1" as="geometry" />
        </mxCell>
        <mxCell id="XOKMStSDW30iechTKge2-169" value="&lt;pre style=&quot;border-color: rgb(0, 0, 0); color: rgb(171, 178, 191); font-size: 9.4pt; font-style: normal; font-variant-ligatures: normal; font-variant-caps: normal; font-weight: 400; letter-spacing: normal; orphans: 2; text-align: center; text-indent: 0px; text-transform: none; widows: 2; word-spacing: 0px; -webkit-text-stroke-width: 0px; text-decoration-thickness: initial; text-decoration-style: initial; text-decoration-color: initial; font-family: &amp;quot;JetBrains Mono&amp;quot;, monospace;&quot;&gt;&lt;pre style=&quot;background-color: rgb(40, 44, 52); font-family: &amp;quot;JetBrains Mono&amp;quot;, monospace; font-size: 9.4pt;&quot;&gt;public &lt;span style=&quot;color:#56b6c2;&quot;&gt;ResponseEntity&lt;/span&gt;&lt;span style=&quot;color:#ffd700;&quot;&gt;&amp;lt;&lt;/span&gt;&lt;span style=&quot;color:#56b6c2;&quot;&gt;String&lt;/span&gt;&lt;span style=&quot;color:#ffd700;&quot;&gt;&amp;gt; &lt;/span&gt;&lt;span style=&quot;color:#98c379;&quot;&gt;execute&lt;/span&gt;&lt;span style=&quot;color:#ffd700;&quot;&gt;(&lt;/span&gt;&lt;span style=&quot;color:#56b6c2;&quot;&gt;RegisterChkNicknameRequest &lt;/span&gt;&lt;span style=&quot;color:#f59762;&quot;&gt;req&lt;/span&gt;&lt;span style=&quot;color:#ffd700;&quot;&gt;) &lt;/span&gt;&lt;span style=&quot;color:#87cefa;&quot;&gt;{&lt;br&gt;&lt;/span&gt;&lt;/pre&gt;&lt;/pre&gt;" style="rounded=0;whiteSpace=wrap;html=1;fillColor=#2a2a33;strokeColor=#ffffff;" vertex="1" parent="WIyWlLk6GJQsqaUBKTNV-1">
          <mxGeometry x="-120" y="160" width="920" height="40" as="geometry" />
        </mxCell>
        <mxCell id="XOKMStSDW30iechTKge2-172" value="&lt;pre style=&quot;background-color:#282c34;color:#abb2bf;font-family:&#39;JetBrains Mono&#39;,monospace;font-size:9.4pt;&quot;&gt;&lt;pre style=&quot;font-family: &amp;quot;JetBrains Mono&amp;quot;, monospace; font-size: 9.4pt;&quot;&gt;public class &lt;span style=&quot;color:#56b6c2;&quot;&gt;UserRegisterChkEmailUseCase &lt;/span&gt;&lt;span style=&quot;color:#ffd700;&quot;&gt;{ &lt;/span&gt;&lt;span style=&quot;color:#7f848e;&quot;&gt;// &lt;/span&gt;&lt;span style=&quot;color:#7f848e;font-family:&#39;Menlo-Regular&#39;,monospace;&quot;&gt;이메일 유효성 검사&lt;br&gt;&lt;/span&gt;&lt;/pre&gt;&lt;/pre&gt;" style="rounded=0;whiteSpace=wrap;html=1;fillColor=#2a2a33;strokeColor=#ffffff;" vertex="1" parent="WIyWlLk6GJQsqaUBKTNV-1">
          <mxGeometry x="-80" y="240" width="840" height="40" as="geometry" />
        </mxCell>
        <mxCell id="XOKMStSDW30iechTKge2-174" style="rounded=1;orthogonalLoop=1;jettySize=auto;html=1;exitX=1;exitY=0.5;exitDx=0;exitDy=0;entryX=0;entryY=0.5;entryDx=0;entryDy=0;edgeStyle=entityRelationEdgeStyle;" edge="1" parent="WIyWlLk6GJQsqaUBKTNV-1" source="XOKMStSDW30iechTKge2-173" target="XOKMStSDW30iechTKge2-74">
          <mxGeometry relative="1" as="geometry" />
        </mxCell>
        <mxCell id="XOKMStSDW30iechTKge2-173" value="&lt;pre style=&quot;border-color: rgb(0, 0, 0); color: rgb(171, 178, 191); font-size: 9.4pt; font-style: normal; font-variant-ligatures: normal; font-variant-caps: normal; font-weight: 400; letter-spacing: normal; orphans: 2; text-align: center; text-indent: 0px; text-transform: none; widows: 2; word-spacing: 0px; -webkit-text-stroke-width: 0px; text-decoration-thickness: initial; text-decoration-style: initial; text-decoration-color: initial; font-family: &amp;quot;JetBrains Mono&amp;quot;, monospace;&quot;&gt;&lt;pre style=&quot;background-color: rgb(40, 44, 52); font-family: &amp;quot;JetBrains Mono&amp;quot;, monospace; font-size: 9.4pt;&quot;&gt;&lt;pre style=&quot;font-family: &amp;quot;JetBrains Mono&amp;quot;, monospace; font-size: 9.4pt;&quot;&gt;public &lt;span style=&quot;color:#56b6c2;&quot;&gt;ResponseEntity&lt;/span&gt;&lt;span style=&quot;color:#ffd700;&quot;&gt;&amp;lt;&lt;/span&gt;&lt;span style=&quot;color:#56b6c2;&quot;&gt;String&lt;/span&gt;&lt;span style=&quot;color:#ffd700;&quot;&gt;&amp;gt; &lt;/span&gt;&lt;span style=&quot;color:#98c379;&quot;&gt;execute&lt;/span&gt;&lt;span style=&quot;color:#ffd700;&quot;&gt;(&lt;/span&gt;&lt;span style=&quot;color:#56b6c2;&quot;&gt;RegisterChkEmailRequest &lt;/span&gt;&lt;span style=&quot;color:#f59762;&quot;&gt;req&lt;/span&gt;&lt;span style=&quot;color:#ffd700;&quot;&gt;) &lt;/span&gt;&lt;span style=&quot;color:#87cefa;&quot;&gt;{&lt;br&gt;&lt;/span&gt;&lt;/pre&gt;&lt;/pre&gt;&lt;/pre&gt;" style="rounded=0;whiteSpace=wrap;html=1;fillColor=#2a2a33;strokeColor=#ffffff;" vertex="1" parent="WIyWlLk6GJQsqaUBKTNV-1">
          <mxGeometry x="-120" y="280" width="920" height="40" as="geometry" />
        </mxCell>
        <mxCell id="XOKMStSDW30iechTKge2-175" value="&lt;pre style=&quot;background-color:#282c34;color:#abb2bf;font-family:&#39;JetBrains Mono&#39;,monospace;font-size:9.4pt;&quot;&gt;&lt;pre style=&quot;font-family: &amp;quot;JetBrains Mono&amp;quot;, monospace; font-size: 9.4pt;&quot;&gt;public class &lt;span style=&quot;color:#56b6c2;&quot;&gt;UserRegisterSendEmailUseCase &lt;/span&gt;&lt;span style=&quot;color:#ffd700;&quot;&gt;{ &lt;/span&gt;&lt;span style=&quot;color:#7f848e;&quot;&gt;// &lt;/span&gt;&lt;span style=&quot;color:#7f848e;font-family:&#39;Menlo-Regular&#39;,monospace;&quot;&gt;이메일 인증 전송&lt;br&gt;&lt;/span&gt;&lt;/pre&gt;&lt;/pre&gt;" style="rounded=0;whiteSpace=wrap;html=1;fillColor=#2a2a33;strokeColor=#ffffff;" vertex="1" parent="WIyWlLk6GJQsqaUBKTNV-1">
          <mxGeometry x="-80" y="360" width="840" height="40" as="geometry" />
        </mxCell>
        <mxCell id="XOKMStSDW30iechTKge2-177" style="rounded=1;orthogonalLoop=1;jettySize=auto;html=1;exitX=1;exitY=0.5;exitDx=0;exitDy=0;entryX=0;entryY=0.5;entryDx=0;entryDy=0;edgeStyle=entityRelationEdgeStyle;" edge="1" parent="WIyWlLk6GJQsqaUBKTNV-1" source="XOKMStSDW30iechTKge2-176" target="XOKMStSDW30iechTKge2-75">
          <mxGeometry relative="1" as="geometry" />
        </mxCell>
        <mxCell id="XOKMStSDW30iechTKge2-176" value="&lt;pre style=&quot;border-color: rgb(0, 0, 0); color: rgb(171, 178, 191); font-size: 9.4pt; font-style: normal; font-variant-ligatures: normal; font-variant-caps: normal; font-weight: 400; letter-spacing: normal; orphans: 2; text-align: center; text-indent: 0px; text-transform: none; widows: 2; word-spacing: 0px; -webkit-text-stroke-width: 0px; text-decoration-thickness: initial; text-decoration-style: initial; text-decoration-color: initial; font-family: &amp;quot;JetBrains Mono&amp;quot;, monospace;&quot;&gt;&lt;pre style=&quot;background-color: rgb(40, 44, 52); font-family: &amp;quot;JetBrains Mono&amp;quot;, monospace; font-size: 9.4pt;&quot;&gt;&lt;pre style=&quot;font-family: &amp;quot;JetBrains Mono&amp;quot;, monospace; font-size: 9.4pt;&quot;&gt;public &lt;span style=&quot;color:#56b6c2;&quot;&gt;ResponseEntity&lt;/span&gt;&lt;span style=&quot;color:#ffd700;&quot;&gt;&amp;lt;&lt;/span&gt;&lt;span style=&quot;color:#56b6c2;&quot;&gt;String&lt;/span&gt;&lt;span style=&quot;color:#ffd700;&quot;&gt;&amp;gt; &lt;/span&gt;&lt;span style=&quot;color:#98c379;&quot;&gt;execute&lt;/span&gt;&lt;span style=&quot;color:#ffd700;&quot;&gt;(&lt;/span&gt;&lt;span style=&quot;color:#56b6c2;&quot;&gt;RegisterSendEmailRequest &lt;/span&gt;&lt;span style=&quot;color:#f59762;&quot;&gt;req&lt;/span&gt;&lt;span style=&quot;color:#ffd700;&quot;&gt;) &lt;/span&gt;&lt;span style=&quot;color:#87cefa;&quot;&gt;{&lt;br&gt;&lt;/span&gt;&lt;/pre&gt;&lt;/pre&gt;&lt;/pre&gt;" style="rounded=0;whiteSpace=wrap;html=1;fillColor=#2a2a33;strokeColor=#ffffff;" vertex="1" parent="WIyWlLk6GJQsqaUBKTNV-1">
          <mxGeometry x="-120" y="400" width="920" height="40" as="geometry" />
        </mxCell>
        <mxCell id="XOKMStSDW30iechTKge2-178" value="&lt;pre style=&quot;background-color:#282c34;color:#abb2bf;font-family:&#39;JetBrains Mono&#39;,monospace;font-size:9.4pt;&quot;&gt;&lt;pre style=&quot;font-family: &amp;quot;JetBrains Mono&amp;quot;, monospace; font-size: 9.4pt;&quot;&gt;public class &lt;span style=&quot;color:#56b6c2;&quot;&gt;UserRegisterUseCase &lt;/span&gt;&lt;span style=&quot;color:#ffd700;&quot;&gt;{ &lt;/span&gt;&lt;span style=&quot;color:#7f848e;&quot;&gt;// &lt;/span&gt;&lt;span style=&quot;color:#7f848e;font-family:&#39;Menlo-Regular&#39;,monospace;&quot;&gt;회원가입 실행&lt;br&gt;&lt;/span&gt;&lt;/pre&gt;&lt;/pre&gt;" style="rounded=0;whiteSpace=wrap;html=1;fillColor=#2a2a33;strokeColor=#ffffff;" vertex="1" parent="WIyWlLk6GJQsqaUBKTNV-1">
          <mxGeometry x="-80" y="600" width="840" height="40" as="geometry" />
        </mxCell>
        <mxCell id="XOKMStSDW30iechTKge2-184" style="edgeStyle=entityRelationEdgeStyle;rounded=1;orthogonalLoop=1;jettySize=auto;html=1;entryX=0;entryY=0.5;entryDx=0;entryDy=0;exitX=1;exitY=0.5;exitDx=0;exitDy=0;" edge="1" parent="WIyWlLk6GJQsqaUBKTNV-1" source="XOKMStSDW30iechTKge2-179" target="XOKMStSDW30iechTKge2-77">
          <mxGeometry relative="1" as="geometry" />
        </mxCell>
        <mxCell id="XOKMStSDW30iechTKge2-179" value="&lt;pre style=&quot;border-color: rgb(0, 0, 0); color: rgb(171, 178, 191); font-size: 9.4pt; font-style: normal; font-variant-ligatures: normal; font-variant-caps: normal; font-weight: 400; letter-spacing: normal; orphans: 2; text-align: center; text-indent: 0px; text-transform: none; widows: 2; word-spacing: 0px; -webkit-text-stroke-width: 0px; text-decoration-thickness: initial; text-decoration-style: initial; text-decoration-color: initial; font-family: &amp;quot;JetBrains Mono&amp;quot;, monospace;&quot;&gt;&lt;pre style=&quot;background-color: rgb(40, 44, 52); font-family: &amp;quot;JetBrains Mono&amp;quot;, monospace; font-size: 9.4pt;&quot;&gt;&lt;pre style=&quot;font-family: &amp;quot;JetBrains Mono&amp;quot;, monospace; font-size: 9.4pt;&quot;&gt;public &lt;span style=&quot;color:#56b6c2;&quot;&gt;ResponseEntity&lt;/span&gt;&lt;span style=&quot;color:#ffd700;&quot;&gt;&amp;lt;&lt;/span&gt;&lt;span style=&quot;color:#56b6c2;&quot;&gt;String&lt;/span&gt;&lt;span style=&quot;color:#ffd700;&quot;&gt;&amp;gt; &lt;/span&gt;&lt;span style=&quot;color:#98c379;&quot;&gt;execute&lt;/span&gt;&lt;span style=&quot;color:#ffd700;&quot;&gt;(&lt;/span&gt;&lt;span style=&quot;color:#56b6c2;&quot;&gt;RegisterRequest &lt;/span&gt;&lt;span style=&quot;color:#f59762;&quot;&gt;req&lt;/span&gt;&lt;span style=&quot;color:#ffd700;&quot;&gt;) &lt;/span&gt;&lt;span style=&quot;color:#87cefa;&quot;&gt;{&lt;br&gt;&lt;/span&gt;&lt;/pre&gt;&lt;/pre&gt;&lt;/pre&gt;" style="rounded=0;whiteSpace=wrap;html=1;fillColor=#2a2a33;strokeColor=#ffffff;" vertex="1" parent="WIyWlLk6GJQsqaUBKTNV-1">
          <mxGeometry x="-120" y="640" width="920" height="40" as="geometry" />
        </mxCell>
        <mxCell id="XOKMStSDW30iechTKge2-181" value="&lt;pre style=&quot;background-color:#282c34;color:#abb2bf;font-family:&#39;JetBrains Mono&#39;,monospace;font-size:9.4pt;&quot;&gt;&lt;pre style=&quot;font-family: &amp;quot;JetBrains Mono&amp;quot;, monospace; font-size: 9.4pt;&quot;&gt;public class &lt;span style=&quot;color:#56b6c2;&quot;&gt;UserRegisterAuthEmailUseCase &lt;/span&gt;&lt;span style=&quot;color:#ffd700;&quot;&gt;{ &lt;/span&gt;&lt;span style=&quot;color:#7f848e;&quot;&gt;// &lt;/span&gt;&lt;span style=&quot;color:#7f848e;font-family:&#39;Menlo-Regular&#39;,monospace;&quot;&gt;이메일 인증 확인&lt;br&gt;&lt;/span&gt;&lt;/pre&gt;&lt;/pre&gt;" style="rounded=0;whiteSpace=wrap;html=1;fillColor=#2a2a33;strokeColor=#ffffff;" vertex="1" parent="WIyWlLk6GJQsqaUBKTNV-1">
          <mxGeometry x="-80" y="480" width="840" height="40" as="geometry" />
        </mxCell>
        <mxCell id="XOKMStSDW30iechTKge2-183" style="edgeStyle=entityRelationEdgeStyle;rounded=1;orthogonalLoop=1;jettySize=auto;html=1;exitX=1;exitY=0.5;exitDx=0;exitDy=0;entryX=0;entryY=0.5;entryDx=0;entryDy=0;" edge="1" parent="WIyWlLk6GJQsqaUBKTNV-1" source="XOKMStSDW30iechTKge2-182" target="XOKMStSDW30iechTKge2-76">
          <mxGeometry relative="1" as="geometry" />
        </mxCell>
        <mxCell id="XOKMStSDW30iechTKge2-182" value="&lt;pre style=&quot;border-color: rgb(0, 0, 0); color: rgb(171, 178, 191); font-size: 9.4pt; font-style: normal; font-variant-ligatures: normal; font-variant-caps: normal; font-weight: 400; letter-spacing: normal; orphans: 2; text-align: center; text-indent: 0px; text-transform: none; widows: 2; word-spacing: 0px; -webkit-text-stroke-width: 0px; text-decoration-thickness: initial; text-decoration-style: initial; text-decoration-color: initial; font-family: &amp;quot;JetBrains Mono&amp;quot;, monospace;&quot;&gt;&lt;pre style=&quot;background-color: rgb(40, 44, 52); font-family: &amp;quot;JetBrains Mono&amp;quot;, monospace; font-size: 9.4pt;&quot;&gt;&lt;pre style=&quot;font-family: &amp;quot;JetBrains Mono&amp;quot;, monospace; font-size: 9.4pt;&quot;&gt;public &lt;span style=&quot;color:#56b6c2;&quot;&gt;ResponseEntity&lt;/span&gt;&lt;span style=&quot;color:#ffd700;&quot;&gt;&amp;lt;&lt;/span&gt;&lt;span style=&quot;color:#56b6c2;&quot;&gt;String&lt;/span&gt;&lt;span style=&quot;color:#ffd700;&quot;&gt;&amp;gt; &lt;/span&gt;&lt;span style=&quot;color:#98c379;&quot;&gt;execute&lt;/span&gt;&lt;span style=&quot;color:#ffd700;&quot;&gt;(&lt;/span&gt;&lt;span style=&quot;color:#56b6c2;&quot;&gt;RegisterAuthEmailRequest &lt;/span&gt;&lt;span style=&quot;color:#f59762;&quot;&gt;req&lt;/span&gt;&lt;span style=&quot;color:#ffd700;&quot;&gt;) &lt;/span&gt;&lt;span style=&quot;color:#87cefa;&quot;&gt;{&lt;br&gt;&lt;/span&gt;&lt;/pre&gt;&lt;/pre&gt;&lt;/pre&gt;" style="rounded=0;whiteSpace=wrap;html=1;fillColor=#2a2a33;strokeColor=#ffffff;" vertex="1" parent="WIyWlLk6GJQsqaUBKTNV-1">
          <mxGeometry x="-120" y="520" width="920" height="40" as="geometry" />
        </mxCell>
        <mxCell id="XOKMStSDW30iechTKge2-185" value="&lt;pre style=&quot;background-color:#282c34;color:#abb2bf;font-family:&#39;JetBrains Mono&#39;,monospace;font-size:9.4pt;&quot;&gt;&lt;pre style=&quot;font-family: &amp;quot;JetBrains Mono&amp;quot;, monospace; font-size: 9.4pt;&quot;&gt;public class &lt;span style=&quot;color:#56b6c2;&quot;&gt;UserLoginUseCase &lt;/span&gt;&lt;span style=&quot;color:#ffd700;&quot;&gt;{ &lt;/span&gt;&lt;span style=&quot;color:#7f848e;&quot;&gt;// &lt;/span&gt;&lt;span style=&quot;color:#7f848e;font-family:&#39;Menlo-Regular&#39;,monospace;&quot;&gt;로그인 실행&lt;br&gt;&lt;/span&gt;&lt;/pre&gt;&lt;/pre&gt;" style="rounded=0;whiteSpace=wrap;html=1;fillColor=#2a2a33;strokeColor=#ffffff;" vertex="1" parent="WIyWlLk6GJQsqaUBKTNV-1">
          <mxGeometry x="-80" y="720" width="840" height="40" as="geometry" />
        </mxCell>
        <mxCell id="XOKMStSDW30iechTKge2-187" style="edgeStyle=entityRelationEdgeStyle;rounded=1;orthogonalLoop=1;jettySize=auto;html=1;exitX=1;exitY=0.5;exitDx=0;exitDy=0;entryX=0;entryY=0.5;entryDx=0;entryDy=0;" edge="1" parent="WIyWlLk6GJQsqaUBKTNV-1" source="XOKMStSDW30iechTKge2-186" target="XOKMStSDW30iechTKge2-70">
          <mxGeometry relative="1" as="geometry" />
        </mxCell>
        <mxCell id="XOKMStSDW30iechTKge2-186" value="&lt;pre style=&quot;border-color: rgb(0, 0, 0); color: rgb(171, 178, 191); font-size: 9.4pt; font-style: normal; font-variant-ligatures: normal; font-variant-caps: normal; font-weight: 400; letter-spacing: normal; orphans: 2; text-align: center; text-indent: 0px; text-transform: none; widows: 2; word-spacing: 0px; -webkit-text-stroke-width: 0px; text-decoration-thickness: initial; text-decoration-style: initial; text-decoration-color: initial; font-family: &amp;quot;JetBrains Mono&amp;quot;, monospace;&quot;&gt;&lt;pre style=&quot;background-color: rgb(40, 44, 52); font-family: &amp;quot;JetBrains Mono&amp;quot;, monospace; font-size: 9.4pt;&quot;&gt;&lt;pre style=&quot;font-family: &amp;quot;JetBrains Mono&amp;quot;, monospace; font-size: 9.4pt;&quot;&gt;public &lt;span style=&quot;color:#56b6c2;&quot;&gt;ResponseEntity&lt;/span&gt;&lt;span style=&quot;color:#ffd700;&quot;&gt;&amp;lt;&lt;/span&gt;&lt;span style=&quot;color:#56b6c2;&quot;&gt;String&lt;/span&gt;&lt;span style=&quot;color:#ffd700;&quot;&gt;&amp;gt; &lt;/span&gt;&lt;span style=&quot;color:#98c379;&quot;&gt;execute&lt;/span&gt;&lt;span style=&quot;color:#ffd700;&quot;&gt;(&lt;/span&gt;&lt;span style=&quot;color:#56b6c2;&quot;&gt;LoginRequest &lt;/span&gt;&lt;span style=&quot;color:#f59762;&quot;&gt;req&lt;/span&gt;&lt;span style=&quot;color:#ffd700;&quot;&gt;) &lt;/span&gt;&lt;span style=&quot;color:#87cefa;&quot;&gt;{&lt;br&gt;&lt;/span&gt;&lt;/pre&gt;&lt;/pre&gt;&lt;/pre&gt;" style="rounded=0;whiteSpace=wrap;html=1;fillColor=#2a2a33;strokeColor=#ffffff;" vertex="1" parent="WIyWlLk6GJQsqaUBKTNV-1">
          <mxGeometry x="-120" y="760" width="920" height="40" as="geometry" />
        </mxCell>
        <mxCell id="XOKMStSDW30iechTKge2-188" value="&lt;pre style=&quot;background-color:#282c34;color:#abb2bf;font-family:&#39;JetBrains Mono&#39;,monospace;font-size:9.4pt;&quot;&gt;&lt;pre style=&quot;font-family: &amp;quot;JetBrains Mono&amp;quot;, monospace; font-size: 9.4pt;&quot;&gt;&lt;span style=&quot;color:#e6c07b;&quot;&gt;home.html&lt;/span&gt;&lt;span style=&quot;color:#9da5b4;&quot;&gt; // 홈 화면&lt;br&gt;&lt;/span&gt;&lt;/pre&gt;&lt;/pre&gt;" style="rounded=0;whiteSpace=wrap;html=1;fillColor=#2a2a33;strokeColor=#FFFFFF;" vertex="1" parent="WIyWlLk6GJQsqaUBKTNV-1">
          <mxGeometry x="2200" y="-680" width="440" height="40" as="geometry" />
        </mxCell>
        <mxCell id="XOKMStSDW30iechTKge2-190" value="&lt;pre style=&quot;background-color:#282c34;color:#abb2bf;font-family:&#39;JetBrains Mono&#39;,monospace;font-size:9.4pt;&quot;&gt;&lt;pre style=&quot;font-family: &amp;quot;JetBrains Mono&amp;quot;, monospace; font-size: 9.4pt;&quot;&gt;&lt;span style=&quot;color:#e6c07b;&quot;&gt;/register.html&lt;/span&gt;&lt;span style=&quot;color:#9da5b4;&quot;&gt; // 회원가입 화면&lt;br&gt;&lt;/span&gt;&lt;/pre&gt;&lt;/pre&gt;" style="rounded=0;whiteSpace=wrap;html=1;fillColor=#2a2a33;strokeColor=#FFFFFF;" vertex="1" parent="WIyWlLk6GJQsqaUBKTNV-1">
          <mxGeometry x="2200" y="-560" width="440" height="40" as="geometry" />
        </mxCell>
        <mxCell id="XOKMStSDW30iechTKge2-192" value="&lt;pre style=&quot;background-color:#282c34;color:#abb2bf;font-family:&#39;JetBrains Mono&#39;,monospace;font-size:9.4pt;&quot;&gt;&lt;pre style=&quot;font-family: &amp;quot;JetBrains Mono&amp;quot;, monospace; font-size: 9.4pt;&quot;&gt;&lt;span style=&quot;color:#e6c07b;&quot;&gt;/login.html&lt;/span&gt;&lt;span style=&quot;color:#9da5b4;&quot;&gt; // 로그인 화면&lt;br&gt;&lt;/span&gt;&lt;/pre&gt;&lt;/pre&gt;" style="rounded=0;whiteSpace=wrap;html=1;fillColor=#2a2a33;strokeColor=#FFFFFF;" vertex="1" parent="WIyWlLk6GJQsqaUBKTNV-1">
          <mxGeometry x="2200" y="-520" width="440" height="40" as="geometry" />
        </mxCell>
        <mxCell id="XOKMStSDW30iechTKge2-193" value="&lt;pre style=&quot;background-color:#282c34;color:#abb2bf;font-family:&#39;JetBrains Mono&#39;,monospace;font-size:9.4pt;&quot;&gt;&lt;pre style=&quot;font-family: &amp;quot;JetBrains Mono&amp;quot;, monospace; font-size: 9.4pt;&quot;&gt;&lt;span style=&quot;color:#e6c07b;&quot;&gt;/auth.html&lt;/span&gt;&lt;span style=&quot;color:#9da5b4;&quot;&gt; // 이메일 인증 화면&lt;br&gt;&lt;/span&gt;&lt;/pre&gt;&lt;/pre&gt;" style="rounded=0;whiteSpace=wrap;html=1;fillColor=#2a2a33;strokeColor=#FFFFFF;" vertex="1" parent="WIyWlLk6GJQsqaUBKTNV-1">
          <mxGeometry x="2200" y="-480" width="440" height="40" as="geometry" />
        </mxCell>
        <mxCell id="XOKMStSDW30iechTKge2-194" value="&lt;pre style=&quot;background-color:#282c34;color:#abb2bf;font-family:&#39;JetBrains Mono&#39;,monospace;font-size:9.4pt;&quot;&gt;&lt;pre style=&quot;font-family: &amp;quot;JetBrains Mono&amp;quot;, monospace; font-size: 9.4pt;&quot;&gt;&lt;span style=&quot;color:#e6c07b;&quot;&gt;/vocalist.html&lt;/span&gt;&lt;span style=&quot;color:#9da5b4;&quot;&gt; // 가수 포스트 화면&lt;br&gt;&lt;/span&gt;&lt;/pre&gt;&lt;/pre&gt;" style="rounded=0;whiteSpace=wrap;html=1;fillColor=#2a2a33;strokeColor=#FFFFFF;" vertex="1" parent="WIyWlLk6GJQsqaUBKTNV-1">
          <mxGeometry x="2200" y="-360" width="440" height="40" as="geometry" />
        </mxCell>
        <mxCell id="XOKMStSDW30iechTKge2-195" value="&lt;pre style=&quot;background-color:#282c34;color:#abb2bf;font-family:&#39;JetBrains Mono&#39;,monospace;font-size:9.4pt;&quot;&gt;&lt;pre style=&quot;font-family: &amp;quot;JetBrains Mono&amp;quot;, monospace; font-size: 9.4pt;&quot;&gt;&lt;span style=&quot;color:#e6c07b;&quot;&gt;/artist.html&lt;/span&gt;&lt;span style=&quot;color:#9da5b4;&quot;&gt; // 아티스트 포스트 화면&lt;br&gt;&lt;/span&gt;&lt;/pre&gt;&lt;/pre&gt;" style="rounded=0;whiteSpace=wrap;html=1;fillColor=#2a2a33;strokeColor=#FFFFFF;" vertex="1" parent="WIyWlLk6GJQsqaUBKTNV-1">
          <mxGeometry x="2200" y="-320" width="440" height="40" as="geometry" />
        </mxCell>
        <mxCell id="XOKMStSDW30iechTKge2-196" value="&lt;pre style=&quot;background-color:#282c34;color:#abb2bf;font-family:&#39;JetBrains Mono&#39;,monospace;font-size:9.4pt;&quot;&gt;&lt;pre style=&quot;font-family: &amp;quot;JetBrains Mono&amp;quot;, monospace; font-size: 9.4pt;&quot;&gt;&lt;span style=&quot;color:#e6c07b;&quot;&gt;/song.html&lt;/span&gt;&lt;span style=&quot;color:#9da5b4;&quot;&gt; // 노래 포스트 화면&lt;br&gt;&lt;/span&gt;&lt;/pre&gt;&lt;/pre&gt;" style="rounded=0;whiteSpace=wrap;html=1;fillColor=#2a2a33;strokeColor=#FFFFFF;" vertex="1" parent="WIyWlLk6GJQsqaUBKTNV-1">
          <mxGeometry x="2200" y="-280" width="440" height="40" as="geometry" />
        </mxCell>
        <mxCell id="XOKMStSDW30iechTKge2-197" value="&lt;pre style=&quot;background-color:#282c34;color:#abb2bf;font-family:&#39;JetBrains Mono&#39;,monospace;font-size:9.4pt;&quot;&gt;&lt;pre style=&quot;font-family: &amp;quot;JetBrains Mono&amp;quot;, monospace; font-size: 9.4pt;&quot;&gt;&lt;span style=&quot;color:#e6c07b;&quot;&gt;/vocalist.html&lt;/span&gt;&lt;span style=&quot;color:#9da5b4;&quot;&gt; // 가수 검색 화면&lt;br&gt;&lt;/span&gt;&lt;/pre&gt;&lt;/pre&gt;" style="rounded=0;whiteSpace=wrap;html=1;fillColor=#2a2a33;strokeColor=#FFFFFF;" vertex="1" parent="WIyWlLk6GJQsqaUBKTNV-1">
          <mxGeometry x="2200" y="-160" width="440" height="40" as="geometry" />
        </mxCell>
        <mxCell id="XOKMStSDW30iechTKge2-198" value="&lt;pre style=&quot;background-color:#282c34;color:#abb2bf;font-family:&#39;JetBrains Mono&#39;,monospace;font-size:9.4pt;&quot;&gt;&lt;pre style=&quot;font-family: &amp;quot;JetBrains Mono&amp;quot;, monospace; font-size: 9.4pt;&quot;&gt;&lt;span style=&quot;color:#e6c07b;&quot;&gt;/artist.html&lt;/span&gt;&lt;span style=&quot;color:#9da5b4;&quot;&gt; // 아티스트 검색 화면&lt;br&gt;&lt;/span&gt;&lt;/pre&gt;&lt;/pre&gt;" style="rounded=0;whiteSpace=wrap;html=1;fillColor=#2a2a33;strokeColor=#FFFFFF;" vertex="1" parent="WIyWlLk6GJQsqaUBKTNV-1">
          <mxGeometry x="2200" y="-120" width="440" height="40" as="geometry" />
        </mxCell>
        <mxCell id="XOKMStSDW30iechTKge2-199" value="&lt;pre style=&quot;background-color:#282c34;color:#abb2bf;font-family:&#39;JetBrains Mono&#39;,monospace;font-size:9.4pt;&quot;&gt;&lt;pre style=&quot;font-family: &amp;quot;JetBrains Mono&amp;quot;, monospace; font-size: 9.4pt;&quot;&gt;&lt;span style=&quot;color:#e6c07b;&quot;&gt;/song.html&lt;/span&gt;&lt;span style=&quot;color:#9da5b4;&quot;&gt; // 노래 검색 화면&lt;br&gt;&lt;/span&gt;&lt;/pre&gt;&lt;/pre&gt;" style="rounded=0;whiteSpace=wrap;html=1;fillColor=#2a2a33;strokeColor=#FFFFFF;" vertex="1" parent="WIyWlLk6GJQsqaUBKTNV-1">
          <mxGeometry x="2200" y="-80" width="440" height="40" as="geometry" />
        </mxCell>
        <mxCell id="XOKMStSDW30iechTKge2-215" value="&lt;pre style=&quot;background-color:#282c34;color:#abb2bf;font-family:&#39;JetBrains Mono&#39;,monospace;font-size:9.4pt;&quot;&gt;&lt;pre style=&quot;font-family: &amp;quot;JetBrains Mono&amp;quot;, monospace; font-size: 9.4pt;&quot;&gt;&lt;span style=&quot;color:#e6c07b;&quot;&gt;/user &lt;/span&gt;// 회원&lt;span style=&quot;color:#9da5b4;&quot;&gt;&lt;br&gt;&lt;/span&gt;&lt;/pre&gt;&lt;/pre&gt;" style="rounded=0;whiteSpace=wrap;html=1;fillColor=#2a2a33;strokeColor=#FFFFFF;" vertex="1" parent="WIyWlLk6GJQsqaUBKTNV-1">
          <mxGeometry x="2240" y="-600" width="360" height="40" as="geometry" />
        </mxCell>
        <mxCell id="XOKMStSDW30iechTKge2-216" value="&lt;pre style=&quot;background-color:#282c34;color:#abb2bf;font-family:&#39;JetBrains Mono&#39;,monospace;font-size:9.4pt;&quot;&gt;&lt;pre style=&quot;font-family: &amp;quot;JetBrains Mono&amp;quot;, monospace; font-size: 9.4pt;&quot;&gt;&lt;span style=&quot;color:#e6c07b;&quot;&gt;/post &lt;/span&gt;// 포스트&lt;span style=&quot;color:#9da5b4;&quot;&gt;&lt;br&gt;&lt;/span&gt;&lt;/pre&gt;&lt;/pre&gt;" style="rounded=0;whiteSpace=wrap;html=1;fillColor=#2a2a33;strokeColor=#FFFFFF;" vertex="1" parent="WIyWlLk6GJQsqaUBKTNV-1">
          <mxGeometry x="2240" y="-400" width="360" height="40" as="geometry" />
        </mxCell>
        <mxCell id="XOKMStSDW30iechTKge2-217" value="&lt;pre style=&quot;background-color:#282c34;color:#abb2bf;font-family:&#39;JetBrains Mono&#39;,monospace;font-size:9.4pt;&quot;&gt;&lt;pre style=&quot;font-family: &amp;quot;JetBrains Mono&amp;quot;, monospace; font-size: 9.4pt;&quot;&gt;&lt;span style=&quot;color:#e6c07b;&quot;&gt;/search &lt;/span&gt;// 검색&lt;span style=&quot;color:#9da5b4;&quot;&gt;&lt;br&gt;&lt;/span&gt;&lt;/pre&gt;&lt;/pre&gt;" style="rounded=0;whiteSpace=wrap;html=1;fillColor=#2a2a33;strokeColor=#FFFFFF;" vertex="1" parent="WIyWlLk6GJQsqaUBKTNV-1">
          <mxGeometry x="2240" y="-200" width="360" height="40" as="geometry" />
        </mxCell>
        <mxCell id="XOKMStSDW30iechTKge2-232" value="&lt;pre style=&quot;border-color: rgb(0, 0, 0); color: rgb(171, 178, 191); font-size: 9.4pt; font-style: normal; font-variant-ligatures: normal; font-variant-caps: normal; font-weight: 400; letter-spacing: normal; orphans: 2; text-align: center; text-indent: 0px; text-transform: none; widows: 2; word-spacing: 0px; -webkit-text-stroke-width: 0px; text-decoration-thickness: initial; text-decoration-style: initial; text-decoration-color: initial; font-family: &amp;quot;JetBrains Mono&amp;quot;, monospace;&quot;&gt;&lt;span style=&quot;border-color: rgb(0, 0, 0); color: rgb(230, 192, 123);&quot;&gt;header.html&lt;/span&gt;&lt;span style=&quot;border-color: rgb(0, 0, 0); color: rgb(157, 165, 180);&quot;&gt; // 헤더&lt;/span&gt;&lt;/pre&gt;" style="rounded=0;whiteSpace=wrap;html=1;fillColor=#2a2a33;strokeColor=#FFFFFF;" vertex="1" parent="WIyWlLk6GJQsqaUBKTNV-1">
          <mxGeometry x="2680" y="-680" width="440" height="40" as="geometry" />
        </mxCell>
        <mxCell id="XOKMStSDW30iechTKge2-233" value="&lt;pre style=&quot;background-color:#282c34;color:#abb2bf;font-family:&#39;JetBrains Mono&#39;,monospace;font-size:9.4pt;&quot;&gt;&lt;pre style=&quot;font-family: &amp;quot;JetBrains Mono&amp;quot;, monospace; font-size: 9.4pt;&quot;&gt;&lt;span style=&quot;color:#e6c07b;&quot;&gt;/fragments&lt;/span&gt;&lt;span style=&quot;color:#9da5b4;&quot;&gt;&lt;br&gt;&lt;/span&gt;&lt;/pre&gt;&lt;/pre&gt;" style="rounded=0;whiteSpace=wrap;html=1;fillColor=#2a2a33;strokeColor=#FFFFFF;" vertex="1" parent="WIyWlLk6GJQsqaUBKTNV-1">
          <mxGeometry x="2720" y="-720" width="360" height="40" as="geometry" />
        </mxCell>
        <mxCell id="XOKMStSDW30iechTKge2-234" value="&lt;pre style=&quot;border-color: rgb(0, 0, 0); color: rgb(171, 178, 191); font-size: 9.4pt; font-style: normal; font-variant-ligatures: normal; font-variant-caps: normal; font-weight: 400; letter-spacing: normal; orphans: 2; text-align: center; text-indent: 0px; text-transform: none; widows: 2; word-spacing: 0px; -webkit-text-stroke-width: 0px; text-decoration-thickness: initial; text-decoration-style: initial; text-decoration-color: initial; font-family: &amp;quot;JetBrains Mono&amp;quot;, monospace;&quot;&gt;&lt;span style=&quot;border-color: rgb(0, 0, 0); color: rgb(230, 192, 123);&quot;&gt;footer.html&lt;/span&gt;&lt;span style=&quot;border-color: rgb(0, 0, 0); color: rgb(157, 165, 180);&quot;&gt; // 푸터&lt;/span&gt;&lt;/pre&gt;" style="rounded=0;whiteSpace=wrap;html=1;fillColor=#2a2a33;strokeColor=#FFFFFF;" vertex="1" parent="WIyWlLk6GJQsqaUBKTNV-1">
          <mxGeometry x="2680" y="-640" width="440" height="40" as="geometry" />
        </mxCell>
        <mxCell id="XOKMStSDW30iechTKge2-235" value="&lt;pre style=&quot;border-color: rgb(0, 0, 0); color: rgb(171, 178, 191); font-size: 9.4pt; font-style: normal; font-variant-ligatures: normal; font-variant-caps: normal; font-weight: 400; letter-spacing: normal; orphans: 2; text-align: center; text-indent: 0px; text-transform: none; widows: 2; word-spacing: 0px; -webkit-text-stroke-width: 0px; text-decoration-thickness: initial; text-decoration-style: initial; text-decoration-color: initial; font-family: &amp;quot;JetBrains Mono&amp;quot;, monospace;&quot;&gt;&lt;span style=&quot;border-color: rgb(0, 0, 0); color: rgb(230, 192, 123);&quot;&gt;darkmodToogle.html&lt;/span&gt;&lt;span style=&quot;border-color: rgb(0, 0, 0); color: rgb(157, 165, 180);&quot;&gt; // 다크 모드 토글&lt;/span&gt;&lt;/pre&gt;" style="rounded=0;whiteSpace=wrap;html=1;fillColor=#2a2a33;strokeColor=#FFFFFF;" vertex="1" parent="WIyWlLk6GJQsqaUBKTNV-1">
          <mxGeometry x="2680" y="-600" width="440" height="40" as="geometry" />
        </mxCell>
        <mxCell id="XOKMStSDW30iechTKge2-236" value="&lt;pre style=&quot;border-color: rgb(0, 0, 0); color: rgb(171, 178, 191); font-size: 9.4pt; font-style: normal; font-variant-ligatures: normal; font-variant-caps: normal; font-weight: 400; letter-spacing: normal; orphans: 2; text-align: center; text-indent: 0px; text-transform: none; widows: 2; word-spacing: 0px; -webkit-text-stroke-width: 0px; text-decoration-thickness: initial; text-decoration-style: initial; text-decoration-color: initial; font-family: &amp;quot;JetBrains Mono&amp;quot;, monospace;&quot;&gt;&lt;span style=&quot;border-color: rgb(0, 0, 0); color: rgb(230, 192, 123);&quot;&gt;listBox_song.html&lt;/span&gt;&lt;span style=&quot;border-color: rgb(0, 0, 0); color: rgb(157, 165, 180);&quot;&gt; // 노래 리스트 박스&lt;/span&gt;&lt;/pre&gt;" style="rounded=0;whiteSpace=wrap;html=1;fillColor=#2a2a33;strokeColor=#FFFFFF;" vertex="1" parent="WIyWlLk6GJQsqaUBKTNV-1">
          <mxGeometry x="2680" y="-560" width="440" height="40" as="geometry" />
        </mxCell>
        <mxCell id="XOKMStSDW30iechTKge2-263" style="edgeStyle=orthogonalEdgeStyle;rounded=1;orthogonalLoop=1;jettySize=auto;html=1;entryX=1;entryY=0.5;entryDx=0;entryDy=0;exitX=1;exitY=0.5;exitDx=0;exitDy=0;" edge="1" parent="WIyWlLk6GJQsqaUBKTNV-1" source="XOKMStSDW30iechTKge2-237" target="XOKMStSDW30iechTKge2-236">
          <mxGeometry relative="1" as="geometry" />
        </mxCell>
        <mxCell id="XOKMStSDW30iechTKge2-237" value="&lt;pre style=&quot;border-color: rgb(0, 0, 0); color: rgb(171, 178, 191); font-size: 9.4pt; font-style: normal; font-variant-ligatures: normal; font-variant-caps: normal; font-weight: 400; letter-spacing: normal; orphans: 2; text-align: center; text-indent: 0px; text-transform: none; widows: 2; word-spacing: 0px; -webkit-text-stroke-width: 0px; text-decoration-thickness: initial; text-decoration-style: initial; text-decoration-color: initial; font-family: &amp;quot;JetBrains Mono&amp;quot;, monospace;&quot;&gt;&lt;span style=&quot;border-color: rgb(0, 0, 0); color: rgb(230, 192, 123);&quot;&gt;listBoxContent_song.html&lt;/span&gt;&lt;span style=&quot;border-color: rgb(0, 0, 0); color: rgb(157, 165, 180);&quot;&gt; // 노래 리스트 박스 항목&lt;/span&gt;&lt;/pre&gt;" style="rounded=0;whiteSpace=wrap;html=1;fillColor=#2a2a33;strokeColor=#FFFFFF;" vertex="1" parent="WIyWlLk6GJQsqaUBKTNV-1">
          <mxGeometry x="2680" y="-520" width="440" height="40" as="geometry" />
        </mxCell>
        <mxCell id="XOKMStSDW30iechTKge2-238" value="&lt;pre style=&quot;border-color: rgb(0, 0, 0); color: rgb(171, 178, 191); font-size: 9.4pt; font-style: normal; font-variant-ligatures: normal; font-variant-caps: normal; font-weight: 400; letter-spacing: normal; orphans: 2; text-align: center; text-indent: 0px; text-transform: none; widows: 2; word-spacing: 0px; -webkit-text-stroke-width: 0px; text-decoration-thickness: initial; text-decoration-style: initial; text-decoration-color: initial; font-family: &amp;quot;JetBrains Mono&amp;quot;, monospace;&quot;&gt;&lt;span style=&quot;border-color: rgb(0, 0, 0); color: rgb(230, 192, 123);&quot;&gt;loginBox.html&lt;/span&gt;&lt;span style=&quot;border-color: rgb(0, 0, 0); color: rgb(157, 165, 180);&quot;&gt; // 로그인 박스&lt;/span&gt;&lt;/pre&gt;" style="rounded=0;whiteSpace=wrap;html=1;fillColor=#2a2a33;strokeColor=#FFFFFF;" vertex="1" parent="WIyWlLk6GJQsqaUBKTNV-1">
          <mxGeometry x="2680" y="-480" width="440" height="40" as="geometry" />
        </mxCell>
        <mxCell id="XOKMStSDW30iechTKge2-239" value="&lt;pre style=&quot;border-color: rgb(0, 0, 0); color: rgb(171, 178, 191); font-size: 9.4pt; font-style: normal; font-variant-ligatures: normal; font-variant-caps: normal; font-weight: 400; letter-spacing: normal; orphans: 2; text-align: center; text-indent: 0px; text-transform: none; widows: 2; word-spacing: 0px; -webkit-text-stroke-width: 0px; text-decoration-thickness: initial; text-decoration-style: initial; text-decoration-color: initial; font-family: &amp;quot;JetBrains Mono&amp;quot;, monospace;&quot;&gt;&lt;span style=&quot;border-color: rgb(0, 0, 0); color: rgb(230, 192, 123);&quot;&gt;mainBox.html&lt;/span&gt;&lt;span style=&quot;border-color: rgb(0, 0, 0); color: rgb(157, 165, 180);&quot;&gt; // 메인 박스&lt;/span&gt;&lt;/pre&gt;" style="rounded=0;whiteSpace=wrap;html=1;fillColor=#2a2a33;strokeColor=#FFFFFF;" vertex="1" parent="WIyWlLk6GJQsqaUBKTNV-1">
          <mxGeometry x="2680" y="-440" width="440" height="40" as="geometry" />
        </mxCell>
        <mxCell id="XOKMStSDW30iechTKge2-279" style="edgeStyle=orthogonalEdgeStyle;rounded=1;orthogonalLoop=1;jettySize=auto;html=1;entryX=1;entryY=0.5;entryDx=0;entryDy=0;exitX=1;exitY=0.5;exitDx=0;exitDy=0;" edge="1" parent="WIyWlLk6GJQsqaUBKTNV-1" source="XOKMStSDW30iechTKge2-240" target="XOKMStSDW30iechTKge2-239">
          <mxGeometry relative="1" as="geometry" />
        </mxCell>
        <mxCell id="XOKMStSDW30iechTKge2-240" value="&lt;pre style=&quot;border-color: rgb(0, 0, 0); color: rgb(171, 178, 191); font-size: 9.4pt; font-style: normal; font-variant-ligatures: normal; font-variant-caps: normal; font-weight: 400; letter-spacing: normal; orphans: 2; text-align: center; text-indent: 0px; text-transform: none; widows: 2; word-spacing: 0px; -webkit-text-stroke-width: 0px; text-decoration-thickness: initial; text-decoration-style: initial; text-decoration-color: initial; font-family: &amp;quot;JetBrains Mono&amp;quot;, monospace;&quot;&gt;&lt;span style=&quot;border-color: rgb(0, 0, 0); color: rgb(230, 192, 123);&quot;&gt;mainBoxContent.html&lt;/span&gt;&lt;span style=&quot;border-color: rgb(0, 0, 0); color: rgb(157, 165, 180);&quot;&gt; // 메인 박스 항목&lt;/span&gt;&lt;/pre&gt;" style="rounded=0;whiteSpace=wrap;html=1;fillColor=#2a2a33;strokeColor=#FFFFFF;" vertex="1" parent="WIyWlLk6GJQsqaUBKTNV-1">
          <mxGeometry x="2680" y="-400" width="440" height="40" as="geometry" />
        </mxCell>
        <mxCell id="XOKMStSDW30iechTKge2-241" value="&lt;pre style=&quot;border-color: rgb(0, 0, 0); color: rgb(171, 178, 191); font-size: 9.4pt; font-style: normal; font-variant-ligatures: normal; font-variant-caps: normal; font-weight: 400; letter-spacing: normal; orphans: 2; text-align: center; text-indent: 0px; text-transform: none; widows: 2; word-spacing: 0px; -webkit-text-stroke-width: 0px; text-decoration-thickness: initial; text-decoration-style: initial; text-decoration-color: initial; font-family: &amp;quot;JetBrains Mono&amp;quot;, monospace;&quot;&gt;&lt;span style=&quot;border-color: rgb(0, 0, 0); color: rgb(230, 192, 123);&quot;&gt;registerBox.html&lt;/span&gt;&lt;span style=&quot;border-color: rgb(0, 0, 0); color: rgb(157, 165, 180);&quot;&gt; // 회원가입 박스&lt;/span&gt;&lt;/pre&gt;" style="rounded=0;whiteSpace=wrap;html=1;fillColor=#2a2a33;strokeColor=#FFFFFF;" vertex="1" parent="WIyWlLk6GJQsqaUBKTNV-1">
          <mxGeometry x="2680" y="-360" width="440" height="40" as="geometry" />
        </mxCell>
        <mxCell id="XOKMStSDW30iechTKge2-242" value="&lt;pre style=&quot;border-color: rgb(0, 0, 0); orphans: 2; text-align: center; text-indent: 0px; widows: 2; text-decoration-thickness: initial; text-decoration-style: initial; text-decoration-color: initial; -webkit-text-stroke-width: 0px; word-spacing: 0px; text-transform: none; letter-spacing: normal; font-weight: 400; font-variant-caps: normal; font-variant-ligatures: normal; font-style: normal; font-size: 9.4pt; font-family: &amp;quot;JetBrains Mono&amp;quot;, monospace; color: rgb(171, 178, 191);&quot;&gt;&lt;span style=&quot;border-color: rgb(0, 0, 0); color: rgb(230, 192, 123);&quot;&gt;searchBoxContent_searchBar.html&lt;/span&gt;&lt;span style=&quot;border-color: rgb(0, 0, 0); color: rgb(157, 165, 180);&quot;&gt; // 검색 바&lt;/span&gt;&lt;/pre&gt;" style="rounded=0;whiteSpace=wrap;html=1;fillColor=#2a2a33;strokeColor=#FFFFFF;" vertex="1" parent="WIyWlLk6GJQsqaUBKTNV-1">
          <mxGeometry x="2680" y="-320" width="440" height="40" as="geometry" />
        </mxCell>
        <mxCell id="XOKMStSDW30iechTKge2-244" value="&lt;pre style=&quot;border-color: rgb(0, 0, 0); color: rgb(171, 178, 191); font-size: 9.4pt; font-style: normal; font-variant-ligatures: normal; font-variant-caps: normal; font-weight: 400; letter-spacing: normal; orphans: 2; text-align: center; text-indent: 0px; text-transform: none; widows: 2; word-spacing: 0px; -webkit-text-stroke-width: 0px; text-decoration-thickness: initial; text-decoration-style: initial; text-decoration-color: initial; font-family: &amp;quot;JetBrains Mono&amp;quot;, monospace;&quot;&gt;&lt;span style=&quot;border-color: rgb(0, 0, 0); color: rgb(230, 192, 123);&quot;&gt;searchBoxContent_song.html&lt;/span&gt;&lt;span style=&quot;border-color: rgb(0, 0, 0); color: rgb(157, 165, 180);&quot;&gt; // 노래 검색 항목&lt;/span&gt;&lt;/pre&gt;" style="rounded=0;whiteSpace=wrap;html=1;fillColor=#2a2a33;strokeColor=#FFFFFF;" vertex="1" parent="WIyWlLk6GJQsqaUBKTNV-1">
          <mxGeometry x="2680" y="-240" width="440" height="40" as="geometry" />
        </mxCell>
        <mxCell id="XOKMStSDW30iechTKge2-245" value="&lt;pre style=&quot;border-color: rgb(0, 0, 0); color: rgb(171, 178, 191); font-size: 9.4pt; font-style: normal; font-variant-ligatures: normal; font-variant-caps: normal; font-weight: 400; letter-spacing: normal; orphans: 2; text-align: center; text-indent: 0px; text-transform: none; widows: 2; word-spacing: 0px; -webkit-text-stroke-width: 0px; text-decoration-thickness: initial; text-decoration-style: initial; text-decoration-color: initial; font-family: &amp;quot;JetBrains Mono&amp;quot;, monospace;&quot;&gt;&lt;span style=&quot;border-color: rgb(0, 0, 0); color: rgb(230, 192, 123);&quot;&gt;searchBoxContent_vocalist.html&lt;/span&gt;&lt;span style=&quot;border-color: rgb(0, 0, 0); color: rgb(157, 165, 180);&quot;&gt; // 가수 검색 항목&lt;/span&gt;&lt;/pre&gt;" style="rounded=0;whiteSpace=wrap;html=1;fillColor=#2a2a33;strokeColor=#FFFFFF;" vertex="1" parent="WIyWlLk6GJQsqaUBKTNV-1">
          <mxGeometry x="2680" y="-200" width="440" height="40" as="geometry" />
        </mxCell>
        <mxCell id="XOKMStSDW30iechTKge2-246" value="&lt;pre style=&quot;border-color: rgb(0, 0, 0); color: rgb(171, 178, 191); font-size: 9.4pt; font-style: normal; font-variant-ligatures: normal; font-variant-caps: normal; font-weight: 400; letter-spacing: normal; orphans: 2; text-align: center; text-indent: 0px; text-transform: none; widows: 2; word-spacing: 0px; -webkit-text-stroke-width: 0px; text-decoration-thickness: initial; text-decoration-style: initial; text-decoration-color: initial; font-family: &amp;quot;JetBrains Mono&amp;quot;, monospace;&quot;&gt;&lt;span style=&quot;border-color: rgb(0, 0, 0); color: rgb(230, 192, 123);&quot;&gt;searchFilter_artist.html&lt;/span&gt;&lt;span style=&quot;border-color: rgb(0, 0, 0); color: rgb(157, 165, 180);&quot;&gt; // 아티스트 검색 필터&lt;/span&gt;&lt;/pre&gt;" style="rounded=0;whiteSpace=wrap;html=1;fillColor=#2a2a33;strokeColor=#FFFFFF;" vertex="1" parent="WIyWlLk6GJQsqaUBKTNV-1">
          <mxGeometry x="2680" y="-160" width="440" height="40" as="geometry" />
        </mxCell>
        <mxCell id="XOKMStSDW30iechTKge2-247" value="&lt;pre style=&quot;border-color: rgb(0, 0, 0); color: rgb(171, 178, 191); font-size: 9.4pt; font-style: normal; font-variant-ligatures: normal; font-variant-caps: normal; font-weight: 400; letter-spacing: normal; orphans: 2; text-align: center; text-indent: 0px; text-transform: none; widows: 2; word-spacing: 0px; -webkit-text-stroke-width: 0px; text-decoration-thickness: initial; text-decoration-style: initial; text-decoration-color: initial; font-family: &amp;quot;JetBrains Mono&amp;quot;, monospace;&quot;&gt;&lt;span style=&quot;border-color: rgb(0, 0, 0); color: rgb(230, 192, 123);&quot;&gt;searchFilter_song.html&lt;/span&gt;&lt;span style=&quot;border-color: rgb(0, 0, 0); color: rgb(157, 165, 180);&quot;&gt; // 노래 검색 필터&lt;/span&gt;&lt;/pre&gt;" style="rounded=0;whiteSpace=wrap;html=1;fillColor=#2a2a33;strokeColor=#FFFFFF;" vertex="1" parent="WIyWlLk6GJQsqaUBKTNV-1">
          <mxGeometry x="2680" y="-120" width="440" height="40" as="geometry" />
        </mxCell>
        <mxCell id="XOKMStSDW30iechTKge2-248" value="&lt;pre style=&quot;border-color: rgb(0, 0, 0); color: rgb(171, 178, 191); font-size: 9.4pt; font-style: normal; font-variant-ligatures: normal; font-variant-caps: normal; font-weight: 400; letter-spacing: normal; orphans: 2; text-align: center; text-indent: 0px; text-transform: none; widows: 2; word-spacing: 0px; -webkit-text-stroke-width: 0px; text-decoration-thickness: initial; text-decoration-style: initial; text-decoration-color: initial; font-family: &amp;quot;JetBrains Mono&amp;quot;, monospace;&quot;&gt;&lt;span style=&quot;border-color: rgb(0, 0, 0); color: rgb(230, 192, 123);&quot;&gt;registerBox.html&lt;/span&gt;&lt;span style=&quot;border-color: rgb(0, 0, 0); color: rgb(157, 165, 180);&quot;&gt; // 회원가입 박스&lt;/span&gt;&lt;/pre&gt;" style="rounded=0;whiteSpace=wrap;html=1;fillColor=#2a2a33;strokeColor=#FFFFFF;" vertex="1" parent="WIyWlLk6GJQsqaUBKTNV-1">
          <mxGeometry x="2680" y="-80" width="440" height="40" as="geometry" />
        </mxCell>
        <mxCell id="XOKMStSDW30iechTKge2-249" value="&lt;pre style=&quot;border-color: rgb(0, 0, 0); orphans: 2; text-align: center; text-indent: 0px; widows: 2; text-decoration-thickness: initial; text-decoration-style: initial; text-decoration-color: initial; -webkit-text-stroke-width: 0px; word-spacing: 0px; text-transform: none; letter-spacing: normal; font-weight: 400; font-variant-caps: normal; font-variant-ligatures: normal; font-style: normal; font-size: 9.4pt; font-family: &amp;quot;JetBrains Mono&amp;quot;, monospace; color: rgb(171, 178, 191);&quot;&gt;&lt;span style=&quot;border-color: rgb(0, 0, 0); color: rgb(230, 192, 123);&quot;&gt;searchBoxContent_artist.html&lt;/span&gt;&lt;span style=&quot;border-color: rgb(0, 0, 0); color: rgb(157, 165, 180);&quot;&gt; // 아티스트 검색 항목&lt;/span&gt;&lt;/pre&gt;" style="rounded=0;whiteSpace=wrap;html=1;fillColor=#2a2a33;strokeColor=#FFFFFF;" vertex="1" parent="WIyWlLk6GJQsqaUBKTNV-1">
          <mxGeometry x="2680" y="-280" width="440" height="40" as="geometry" />
        </mxCell>
      </root>
    </mxGraphModel>
  </diagram>
</mxfile>
